<?xml version="1.0" encoding="utf-8"?>
<!-- Generator: Adobe Illustrator 16.0.0, SVG Export Plug-In . SVG Version: 6.00 Build 0)  -->
<!DOCTYPE svg PUBLIC "-//W3C//DTD SVG 1.1//EN" "http://www.w3.org/Graphics/SVG/1.1/DTD/svg11.dtd">
<svg version="1.1" id="Layer_1" xmlns="http://www.w3.org/2000/svg" xmlns:xlink="http://www.w3.org/1999/xlink" x="0px" y="0px"
	 width="288px" height="288px" viewBox="0 0 288 288" enable-background="new 0 0 288 288" xml:space="preserve">
<g>
	<path fill="#45A4FF" d="M143.75,285.028c-77.892,0-141.262-63.371-141.262-141.261c0-77.893,63.37-141.264,141.262-141.264
		c77.892,0,141.263,63.372,141.263,141.264C285.013,221.657,221.642,285.028,143.75,285.028z M143.75,8.565
		c-74.55,0-135.2,60.65-135.2,135.202c0,74.546,60.65,135.197,135.2,135.197c74.548,0,135.197-60.65,135.197-135.197
		C278.947,69.216,218.298,8.565,143.75,8.565z"/>
	<polygon fill="#45A4FF" points="144.098,238.942 146.341,243.481 151.354,244.21 147.727,247.747 148.583,252.739 144.098,250.382 
		139.618,252.739 140.474,247.747 136.847,244.21 141.857,243.481 	"/>
	<g>
		<path fill="#45A4FF" d="M99.013,221.573v-16.971h9.693v2.352h-7.125v4.559h5.357v2.328h-5.357v5.404h7.125v2.326h-9.693V221.573z"
			/>
		<path fill="#45A4FF" d="M112.738,218.155c0.702,1.016,1.892,1.527,3.006,1.527c0.945,0,1.649-0.605,1.649-1.215
			c0-2.035-5.554-1.646-5.554-5.332c0-2.107,1.87-3.246,3.64-3.246c1.502,0,2.741,0.578,3.539,1.67
			c-0.558,0.438-1.092,0.896-1.625,1.359c-0.387-0.561-1.138-0.973-1.891-0.973c-0.678,0-1.262,0.391-1.262,1.094
			c0,1.766,5.625,1.672,5.625,5.285c0,1.965-1.575,3.494-4.145,3.494c-1.914,0-3.612-0.73-4.655-2.209L112.738,218.155z"/>
		<path fill="#45A4FF" d="M123.504,210.132v-4.463h2.545v4.463h1.794v2.303h-1.794v9.139h-2.545v-9.139h-1.793v-2.303H123.504z"/>
		<path fill="#45A4FF" d="M131.702,218.202c0.994,0,1.819,0.824,1.819,1.793c0,0.994-0.826,1.822-1.819,1.822
			c-0.969,0-1.794-0.828-1.794-1.822C129.907,219.028,130.73,218.202,131.702,218.202z"/>
		<path fill="#45A4FF" d="M143.461,221.573v-2.037c0,0,7.904-5.26,7.904-10.033c0-1.674-1.139-2.693-2.472-2.693
			c-1.356,0-2.497,0.945-2.497,2.568c0,0.85,0.169,1.408,0.293,1.723l-2.424,0.727c0,0-0.484-0.848-0.484-2.303
			c0-3.199,2.424-5.115,5.161-5.115c2.716,0,5.044,1.695,5.044,4.969c0,4.098-4.099,8-6.326,9.867
			c0.584-0.072,1.48-0.168,2.498-0.168h3.974v2.496H143.461z"/>
		<path fill="#45A4FF" d="M163.734,204.36c4.726,0,7.32,3.785,7.32,8.727c0,4.826-2.595,8.73-7.32,8.73
			c-4.727,0-7.323-3.904-7.323-8.73C156.411,208.167,159.008,204.36,163.734,204.36z M163.734,219.392
			c3.198,0,4.774-2.861,4.774-6.305c0-3.467-1.551-6.277-4.774-6.277s-4.774,2.811-4.774,6.277S160.535,219.392,163.734,219.392z"/>
		<path fill="#45A4FF" d="M173.534,221.573v-2.303h2.305v-11.857l-1.795,0.924l-0.996-2.061l3.395-1.674h1.962v14.668h2.302v2.303
			H173.534z"/>
		<path fill="#45A4FF" d="M183.404,221.573v-2.303h2.304v-11.857l-1.795,0.924l-0.997-2.061l3.396-1.674h1.965v14.668h2.3v2.303
			H183.404z"/>
	</g>
	<g>
		<path fill="#45A4FF" d="M48.071,184.237H40.87v-62.265h7.201c16.945,0.084,18.213,6.778,18.213,31.175
			C66.284,177.46,65.016,184.151,48.071,184.237z M50.021,175.089c6.438,0,6.863-1.609,6.778-22.027
			c0.085-20.332-0.34-21.944-6.778-21.944V175.089z"/>
		<path fill="#45A4FF" d="M93.563,172.97c0,0,0.086,11.947-11.013,11.947c-11.013,0-10.929-12.201-10.929-12.201v-23.293
			c0,0-0.084-12.197,10.929-12.197c11.099,0,11.013,11.943,11.013,11.943V172.97z M82.551,144.674c-3.137,0-2.881,4.747-2.881,4.747
			v23.293c0,0-0.255,4.662,2.881,4.662c3.218,0,2.965-4.662,2.965-4.662v-23.293C85.518,149.421,85.77,144.674,82.551,144.674z"/>
		<path fill="#45A4FF" d="M107.456,173.563c0,1.693,0.085,3.727,2.374,3.727c1.947,0,2.456-0.932,2.456-3.727v-6.439h8.556v4.488
			c0,10.334-3.812,13.303-11.013,13.303c-6.185,0-10.93-3.391-10.93-13.723v-20.25c0-10.336,4.745-13.719,10.93-13.719
			c7.199,0,11.013,2.961,11.013,13.297v3.645h-8.556v-5.594c0-2.798-0.508-3.729-2.456-3.729c-2.289,0-2.374,2.035-2.374,3.729
			V173.563z"/>
		<path fill="#45A4FF" d="M134.818,121.972v28.042v1.525h0.423l0.507-1.525l4.151-12.117h7.707l-6.183,15.082l7.793,31.26H141
			l-4.235-18.725l-0.169-0.674h-0.425l-0.253,0.674l-1.099,2.711v16.012h-8.557c0-16.266,0-62.265,0-62.265H134.818L134.818,121.972
			z"/>
		<path fill="#45A4FF" d="M163.535,141.882l0.255,0.59h0.165l0.259-0.59l4.572-19.91h8.981l-9.321,35.751v26.516H159.3v-26.516
			l-9.317-35.751h8.98L163.535,141.882z"/>
		<path fill="#45A4FF" d="M191.151,153.999c0-0.512,0-1.104,0-1.527c0-0.514,0-2.711,0-3.561c0-1.693,0-4.237-2.372-4.237
			c-2.884,0-2.373,4.237-2.461,6.866h-8.553c0,0,0-1.609,0-1.949c0-6.779,4.998-12.368,11.522-12.368
			c5.587,0,10.42,4.485,10.42,10.5v14.486c0,2.967,0,10.846,0,13.98c0,4.156,0.254,6.014,0.592,8.049c-8.135,0-8.389,0-8.389,0
			c-0.762-0.848-0.762-3.219-0.762-3.729h-0.591c-0.85,1.609-3.393,4.404-6.861,4.404c-2.289,0-6.864-1.695-6.864-11.438
			C176.835,157.808,190.303,156.794,191.151,153.999z M187.594,176.526c1.948,0,3.558-1.27,3.558-2.795v-11.863
			c-4.151,1.781-5.93,5.934-5.93,10.336C185.222,173.31,185.475,176.526,187.594,176.526z"/>
		<path fill="#45A4FF" d="M223.259,146.707c0,0-3.98-1.267-6.697,1.106c-1.523,1.352-1.86,2.793-1.86,4.236
			c0,26.26,0,22.529,0,32.188h-8.556v-46.34h8.556v5.169c0.256-1.185,2.289-5.843,8.558-5.843V146.707L223.259,146.707z"/>
		<path fill="#45A4FF" d="M248.583,184.237h-8.552v-3.045c0,0-3.644,3.725-6.78,3.725c-4.658,0-6.607-5.254-6.607-9.062v-29.572
			c0-3.81,1.949-9.059,6.607-9.059c3.135,0,6.78,3.727,6.78,3.727v-18.978h8.552V184.237z M240.031,148.067
			c0-1.36-1.273-2.801-2.544-2.801c-1.272,0-2.284,1.188-2.284,2.801v26.008c0,1.605,1.012,2.793,2.284,2.793
			c1.188,0,2.544-1.188,2.544-2.793C240.031,163.565,240.031,156.956,240.031,148.067z"/>
	</g>
	<g>
		<path fill="#45A4FF" d="M159.804,47.265c0.083-1.095-0.762-1.517-1.976-1.136c-0.774,0.242-1.71,0.883-2.533,2.273
			C157.205,49.157,159.679,48.845,159.804,47.265z"/>
		<path fill="#45A4FF" d="M124.778,55.517c1.259,0.104,2.601-1.246,3.2-4c0.421-1.936,0.57-4.514-1.306-4.588
			c-2.104-0.086-3.163,2.652-3.534,4.969C122.825,53.841,123.509,55.412,124.778,55.517z"/>
		<path fill="#45A4FF" d="M140.072,53.535c1.232,0.276,2.748-0.877,3.717-3.521c0.688-1.86,1.189-4.394-0.658-4.726
			c-2.072-0.371-3.501,2.19-4.188,4.435C138.367,51.606,138.829,53.255,140.072,53.535z"/>
		<path fill="#45A4FF" d="M74.282,79.566c9.314,9.89,20.514,15.868,34.31,16.008c14.182,0.146,25.72-5.843,35.291-16.008
			c9.316,9.89,20.515,15.868,34.314,16.008c14.183,0.146,25.718-5.843,35.29-16.008c9.312,9.89,20.513,15.868,34.31,16.008
			c5.813,0.06,11.177-0.917,16.146-2.783c-19.854-46.755-66.194-79.548-120.192-79.548C89.783,13.244,43.465,46,23.594,92.711
			c4.745,1.809,9.859,2.807,15.394,2.863C53.172,95.72,64.706,89.731,74.282,79.566z M186.66,53.541
			c1.927-0.188,1.89-0.14-0.76,4.853c-1.951,3.675-0.815,5.578,1.491,4.933c0,0,3.054-5.615,3.873-7.184
			c1.076-2.049,0.722-1.762,2.908-1.887c2.188-0.126,2.035-0.05,0.586,2.566c-1.694,3.06-5.745,10.406-8.466,14.434
			c0,0,6.134,1.756,11.084,0.456c3.313-0.873,3.133-0.172,2.144,1.188c-2.577,3.55-5.132,4.967-14.759,1.295
			c-0.038-0.015-0.073-0.026-0.112-0.04c-1.061,1.767-3.077,4.817-5.745,7.35c-6.485,6.164-18.368,4.145-19.614-2.043
			c-1.462-7.282,5.597-15.703,23.938-9.051c0,0,0.851-1.055,2.63-4.101c0,0-3.139,0.345-3.911-3.262
			c-0.325-1.526,0.488-4.382,2.117-7.669C184.825,53.85,185.048,53.696,186.66,53.541z M167.385,57.171
			c0.762,0.438,2.002,1.083,2.773-1.565c0.013-0.043,4.048-12.946,5.266-17.832c0.438-1.764,0.432-1.955,2.024-2.453
			c1.876-0.587,1.993-0.563,1.454,1.388c-1.1,3.978-2.677,9.43-3.11,10.988c-0.126,0.456,0.315,0.447,1.058,0.237
			c0.926-0.262,2.465-0.261,3.467,0.287c3.436,1.883,1.881,7.395,1.18,9.005c-1.471,3.37-3.975,5.558-6.897,5.072
			c-2.793-0.461-3.03-1.961-4.644-2.023c-2.187-0.085-2.747,0.124-3.176-1.905C166.479,56.956,166.918,56.901,167.385,57.171z
			 M160.249,43.223c2.214,0.431,2.885,2.726,2.548,4.126c-1.011,4.202-6.257,4.422-8.931,3.327
			c-0.421,0.672-0.693,1.988-0.506,2.791c0.701,2.199,3.813,2.188,5.449,0.874c0.859-0.688,1.712-0.249,0.889,1.029
			c-1.051,1.634-2.857,2.643-5.226,2.759c-3.522,0.173-4.306-3.227-4.403-3.8c-0.543-3.174,0.393-6.495,3.422-9.085
			C155.874,43.211,157.969,42.779,160.249,43.223z M138.38,44.233c1.633-1.647,3.579-2.995,6.144-2.396
			c1.107,0.26,1.526,0.843,1.774,0.202c0.915-2.351,1.841-5.215,3.359-10.393c0.213-0.724,0.56-0.891,1.716-1.245
			c2.011-0.617,1.949-0.086,1.573,1.201c-1.438,4.884-6.077,19.608-6.419,21.331c-0.343,1.726,0.78,1.529,1.573,1.374
			c0.79-0.157,0.828,0.173,0.041,1.545c-0.788,1.371-2.609,1.375-3.949,0.854c-1.34-0.521-1.237-0.804-3.505,0.601
			c-2.264,1.401-5.214,0.388-5.568-2.738C134.761,51.439,136.133,46.496,138.38,44.233z M127.599,43.643
			c1.124,0.196,1.248,0.325,1.755-0.141c0.511-0.466,1.506-0.912,2.587-0.413c1.084,0.498,1.352,1.606,0.564,3.792
			c-0.789,2.185-1.471,5.653-1.602,7.407c-0.132,1.753,0.958,1.423,1.727,1.173c0.764-0.254,0.947,0.119,0.228,1.528
			c-0.797,1.56-2.525,1.516-3.409,1.307c-1.398-0.334-1.73-0.628-3.813,1.04c-2.079,1.669-5.125,1.021-5.86-2.04
			c-0.732-3.062,0.453-7.546,2.011-10.198C123.087,44.884,125.915,43.348,127.599,43.643z M91.385,68.562
			c3.011-1.125,2.504,2.824,3.965,0.938c1.46-1.889,4.851-16.417,5.427-20.153c0.579-3.737,0.099-3.602-0.068-5.91
			c-0.165-2.307,2.494-3.397,3.37-3.757c0.877-0.359,1.452,0.22,1.726,2.543c0.593,4.992,1.616,12.214,1.75,13.286
			c0.13,1.07,0.233,1.409,2.077-2.923c1.324-3.116,2.653-6.316,6.36-15.248c0.636-1.538,1.833-1.879,3.247-2.19
			c1.83-0.404,0.167,2.295-0.783,5.345c-2.211,7.132-2.667,12.247-2.602,18.828c0.042,4.519,2.369,4.797,3.723,3.254
			c0.817-0.929,1.663-0.002,1.044,1.948c-0.791,2.491-2.775,3.289-4.872,3.053c-3.108-0.353-3.41-3.934-3.542-5.004
			c-0.132-1.071,0.097-6.846,0.194-8.356c0.062-1.003-0.293-0.726-1.188,1.499c-1.479,3.665-1.871,4.552-3.247,7.686
			c-1.23,2.802-1.439,1.934-2.371-2.186c-0.623-2.759-1.053-5.091-1.568-7.339c-0.665-2.907-0.723-2.92-1.776,2.1
			c-0.581,2.773-2.38,10.242-3.09,12.567c-1.56,5.087-4.223,7.001-7.312,6.258C88.76,74.057,89.744,69.176,91.385,68.562z"/>
		<path fill="#45A4FF" d="M175.376,59.2c1.247,0.18,2.668-1.088,3.433-3.801c0.534-1.906,0.837-4.473-1.029-4.659
			c-2.097-0.21-3.32,2.457-3.828,4.746C173.521,57.411,174.112,59.02,175.376,59.2z"/>
		<path fill="#45A4FF" d="M166.375,71.926c-2.777,1.358-4.561,4.057-3.809,6.354c1.312,4,10.758,6.125,19.02-5.22
			C173.017,70.187,168.979,70.654,166.375,71.926z"/>
	</g>
</g>
</svg>
