<?xml version="1.0" encoding="utf-8"?>
<!-- Generator: Adobe Illustrator 16.0.3, SVG Export Plug-In . SVG Version: 6.00 Build 0)  -->
<!DOCTYPE svg PUBLIC "-//W3C//DTD SVG 1.1//EN" "http://www.w3.org/Graphics/SVG/1.1/DTD/svg11.dtd">
<svg version="1.1" xmlns="http://www.w3.org/2000/svg" xmlns:xlink="http://www.w3.org/1999/xlink" x="0px" y="0px" width="216px"
	 height="288px" viewBox="0 0 216 288" enable-background="new 0 0 216 288" xml:space="preserve">
<g id="Layer_1" display="none">
	<rect x="-764.979" y="-298" display="inline" fill="#203245" width="1744.957" height="882"/>
</g>
<g id="Layer_2" display="none">
</g>
<g id="Layer_3">
	<g>
		<g>
			<g>
				<path fill="#45A4FF" d="M68.329,46.722c10.406-1.371,21.252-1.287,31.721-1.19c5.163,0.048,10.329-0.515,15.513-0.449
					c5.358,0.067,10.721,1.738,16.07,0.838c1.633-0.274,0.938-2.754-0.684-2.48c-5.524,0.929-11.476-0.881-17.04-0.951
					c-4.635-0.059-9.238,0.371-13.859,0.471c-10.542,0.228-21.235-0.191-31.721,1.19C66.708,44.363,66.688,46.938,68.329,46.722
					L68.329,46.722z"/>
			</g>
		</g>
		<g>
			<g>
				<path fill="#45A4FF" d="M130.703,45.95c3.85,4.317,8.575,9.178,14.014,11.416c1.534,0.632,2.195-1.858,0.684-2.48
					c-2.761-1.137-5.096-3.386-7.419-5.226c-2.029-1.606-3.743-3.604-5.459-5.528C131.416,42.891,129.604,44.717,130.703,45.95
					L130.703,45.95z"/>
			</g>
		</g>
		<g>
			<g>
				<path fill="#45A4FF" d="M67.096,46.735c1.489,1.698,2.892,3.467,4.339,5.2c1.748,2.095,3.805,3.926,5.441,6.112
					c0.982,1.311,3.217,0.031,2.222-1.299c-1.43-1.909-3.114-3.57-4.718-5.33c-1.906-2.093-3.599-4.374-5.464-6.502
					C67.82,43.667,66.008,45.494,67.096,46.735L67.096,46.735z"/>
			</g>
		</g>
		<g>
			<g>
				<path fill="#45A4FF" d="M78.956,59.772c10.938-0.566,21.857-1.828,32.865-1.19c10.095,0.584,21.594,2.695,31.446,0.036
					c1.6-0.432,0.92-2.913-0.684-2.48c-10.131,2.734-22.288,0.362-32.631-0.236c-10.345-0.599-20.699,0.766-30.997,1.299
					C77.305,57.285,77.297,59.858,78.956,59.772L78.956,59.772z"/>
			</g>
		</g>
		<g>
			<g>
				<path fill="#45A4FF" d="M66.581,46.263c0.723,2.302-0.113,5.668-0.271,8.026c-0.261,3.921,0.07,7.672,0.268,11.592
					c0.513,10.178-0.921,20.768,0.699,30.823c0.263,1.635,2.742,0.938,2.48-0.684c-0.844-5.24-0.31-10.476-0.308-15.751
					c0.002-5.969-0.124-11.957-0.499-17.914c-0.196-3.111-0.2-6.073,0.008-9.194c0.155-2.328,0.82-5.297,0.103-7.582
					C68.566,44.002,66.083,44.676,66.581,46.263L66.581,46.263z"/>
			</g>
		</g>
		<g>
			<g>
				<path fill="#45A4FF" d="M76.002,58.729c1.315,7.852,0.404,16.169,0.944,24.109c0.5,7.338,0.575,14.852,1.879,22.094
					c0.293,1.631,2.772,0.938,2.48-0.684c-1.365-7.578-1.388-15.537-1.911-23.221c-0.519-7.617,0.349-15.447-0.913-22.982
					C78.209,56.411,75.73,57.106,76.002,58.729L76.002,58.729z"/>
			</g>
		</g>
		<g>
			<g>
				<path fill="#45A4FF" d="M68.049,98.751c3.67,2.435,6.854,5.398,11.215,6.632c1.6,0.453,2.277-2.029,0.684-2.48
					c-4.119-1.165-7.134-4.073-10.6-6.372C67.961,95.61,66.674,97.839,68.049,98.751L68.049,98.751z"/>
			</g>
		</g>
		<g>
			<g>
				<path fill="#45A4FF" d="M79.705,106.172c4.556,1.061,8.998,1.354,13.677,1.161c6.264-0.259,12.465,0.186,18.729,0.209
					c5.562,0.021,11.096-0.456,16.661-0.223c4.55,0.191,9.592,0.79,14.078,0.062c1.634-0.266,0.938-2.744-0.684-2.48
					c-4.181,0.679-9.141-0.012-13.395-0.153c-5.559-0.186-11.104,0.084-16.661,0.223c-4.987,0.125-9.98-0.412-14.97-0.402
					c-5.744,0.012-11.063,0.448-16.752-0.876C78.774,103.315,78.089,105.796,79.705,106.172L79.705,106.172z"/>
			</g>
		</g>
		<g>
			<g>
				<path fill="#45A4FF" d="M142.304,57.76c0.062,9.349,0.142,18.81-0.256,28.158c-0.179,4.206,0.118,8.416-0.01,12.627
					c-0.078,2.564-0.122,5.24,0.475,7.751c0.384,1.613,2.864,0.929,2.48-0.684c-0.612-2.575-0.435-5.367-0.354-7.993
					c0.139-4.547-0.13-9.079,0.063-13.628c0.37-8.699,0.232-17.531,0.174-26.231C144.864,56.102,142.292,56.101,142.304,57.76
					L142.304,57.76z"/>
			</g>
		</g>
		<g>
			<g>
				<path fill="#45A4FF" d="M88.948,80.48c0.031,0.014,0.063,0.027,0.094,0.041c0.154,0.154,0.308,0.308,0.461,0.462
					c0.026,0.106,0.052,0.212,0.078,0.318c-0.001-0.096,0.001-0.19,0.008-0.286c-0.212,0.37-0.425,0.74-0.637,1.11
					c0.197-0.137,0.074-0.119-0.37,0.053c-0.234,0.001-0.434-0.071-0.601-0.217c-0.109-0.151-0.124-0.167-0.045-0.045
					c0.167,0.271-0.081-0.255,0.034,0.062c0.033,0.092,0.119,0.613,0.081,0.258c0.005,0.061,0.007,0.121,0.006,0.181
					c0.01-0.062,0.021-0.123,0.031-0.185c-0.059,0.224,0.019,0.105,0.233-0.354c0.189-0.11,0.378-0.221,0.568-0.331
					c0.208-0.066,0.446,0.016,0.605,0.146c-0.054-0.048-0.105-0.099-0.152-0.153c0.082,0.114,0.08,0.11-0.005-0.014
					c-0.035-0.051-0.234-0.472-0.125-0.196c-0.023-0.063-0.043-0.128-0.06-0.193c0.005,0.056,0.011,0.11,0.016,0.166
					c0-0.324-0.1-0.123-0.298,0.604c0.159-0.16,0.27-0.35,0.331-0.567c-0.019,0.066-0.055,0.122-0.106,0.169
					c-0.151,0.145-0.326,0.219-0.524,0.223c-0.063,0.003-0.454-0.163-0.241-0.042c-0.134-0.112-0.149-0.121-0.045-0.024
					c-0.099-0.143-0.11-0.155-0.034-0.039c-0.062-0.173-0.073-0.194-0.033-0.062c-0.067-0.239-0.013-0.528,0.163-0.711
					c0.189-0.11,0.378-0.221,0.568-0.331c0.585-0.127,1.23,0.558,1.102,1.123c0.039-0.172-0.118,0.185,0.069-0.109
					c-0.182,0.285,0.256-0.135-0.062,0.07c-0.107,0.06-0.222,0.09-0.345,0.093c0.385-0.05,0.456-0.06,0.212-0.031
					c-0.215,0.018-0.4-0.133-0.515-0.295c0.066,0.124,0.062,0.105-0.013-0.054c0.034,0.142,0.037,0.122,0.01-0.061
					c0.006,0.064,0.007,0.128,0.004,0.191c0.032-0.186,0.032-0.208,0-0.068c0.03-0.106,0.087-0.196,0.172-0.269
					c0.05-0.064,0.422-0.19,0.111-0.1c0.139-0.01,0.135-0.013-0.01-0.009c0.167,0.029,0.182,0.025,0.043-0.011
					c0.103,0.02,0.189,0.068,0.26,0.146c-0.097-0.101-0.082-0.077,0.044,0.07c-0.066-0.123-0.052-0.091,0.04,0.099
					c0.037,0.139,0.035,0.276-0.007,0.414c-0.066,0.22-0.201,0.395-0.404,0.523c-0.46,0.085-0.571,0.124-0.331,0.116
					c0.145,0.002,0.284-0.021,0.417-0.07c-0.347,0.084-0.628,0.017-0.844-0.203c0.092,0.097,0.078,0.076-0.043-0.062
					c0.064,0.124,0.059,0.105-0.017-0.054c0.068,0.191,0.024-0.225,0.01,0.131c0.018-0.446,0.431-0.684,0.896-0.566
					c0.186,0.047,0.353,0.261,0.129,0.02c0.208,0.224-0.044-0.105-0.082-0.179c0.13,0.252-0.047-0.156-0.065-0.219
					c-0.02-0.068-0.082-0.527-0.049-0.199c-0.009-0.088,0.028-0.52-0.029-0.14c0.048-0.326-0.023,0.039-0.144,0.168
					c-0.572,0.194-0.693,0.282-0.364,0.266c-0.044,0.014-0.083,0.006-0.116-0.025c0.179,0.08,0.098,0.022,0.176,0.161
					c-0.11-0.193,0.132-0.775-0.053-0.417c-0.125,0.244,0.006-0.008,0.176-0.065c0.112-0.031,0.223-0.031,0.335-0.001
					c0.17,0.083,0.193,0.091,0.07,0.022c0.14,0.114,0.16,0.124,0.06,0.026c0.107,0.145,0.125,0.158,0.055,0.039
					c0.124,0.229,0.1,0.412-0.007,0.642c-0.047,0.078-0.109,0.142-0.185,0.189c0.144-0.082,0.265-0.188,0.361-0.321
					c-0.328,0.23-0.713,0.195-1.158-0.104c-0.18-0.374-0.235-0.452-0.165-0.234c-0.03-0.083-0.031-0.165-0.001-0.247
					c-0.042,0.261-0.027,0.011,0.029-0.046c-1.162,1.185,0.656,3.004,1.819,1.818c1.059-1.078,0.91-3.559-0.981-3.599
					c-0.357-0.008-0.711,0.097-1.004,0.3c-0.337,0.234-0.418,0.305-0.686,0.61c-0.567,0.647-0.602,1.443-0.277,2.21
					c0.584,1.38,2.29,1.538,3.338,0.64c1.325-1.136,0.768-3.07-0.604-3.845c-0.688-0.388-1.625-0.456-2.328-0.077
					c-0.633,0.341-0.837,1.07-0.896,1.729c-0.098,1.11,0.48,2.497,1.422,3.11c1.385,0.901,2.965-0.337,2.899-1.857
					c-0.027-0.615-0.273-1.201-0.704-1.643c-0.215-0.22-0.532-0.394-0.83-0.465c-0.313-0.074-0.442-0.046-0.756-0.004
					c-0.131,0.018-0.098,0.014,0.099-0.011c-0.143,0.017-0.285,0.035-0.427,0.056c-1.227,0.328-1.482,1.553-1.037,2.594
					c0.453,1.06,1.897,1.338,2.868,0.965c1.134-0.436,1.549-1.646,1.237-2.77c-0.151-0.545-0.5-0.954-0.954-1.271
					c-0.244-0.171-0.61-0.247-0.902-0.264c-0.18-0.01-0.366,0.013-0.542,0.05c0.41-0.086-0.115,0.011-0.262,0.04
					c-1.019,0.205-1.606,1.344-1.721,2.269c-0.069,0.56,0.321,1.166,0.794,1.423c0.764,0.416,1.691,0.162,2.176-0.537
					c0.711-1.024,0.059-2.256-0.837-2.875c-1.18-0.815-2.48,0.016-2.908,1.188c0.11-0.189,0.22-0.379,0.331-0.567
					c-0.889,1.052-0.286,2.462,0.547,3.352c0.452,0.482,1.234,0.825,1.896,0.614c0.776-0.248,1.091-0.87,1.136-1.636
					c0.064-1.096-0.558-2.407-1.639-2.757c-0.903-0.292-1.927,0.431-1.974,1.355c-0.044,0.872,0.311,1.743,1.247,1.945
					c0.685,0.148,1.389-0.195,1.582-0.898C90.025,81.416,89.634,80.629,88.948,80.48L88.948,80.48z"/>
			</g>
		</g>
		<g>
			<g>
				<path fill="#45A4FF" d="M130.679,81.002c0.031,0.014,0.062,0.027,0.094,0.041c0.154,0.154,0.308,0.308,0.462,0.462
					c0.025,0.106,0.052,0.213,0.077,0.319c-0.001-0.096,0.002-0.191,0.009-0.286c-0.126,0.304-0.251,0.606-0.377,0.909
					c-0.424,0.328-1.007,0.354-1.325-0.087c0.035,0.053,0.066,0.107,0.095,0.164c-0.145-0.27-0.002,0.01,0.02,0.077
					c0.024,0.076,0.088,0.516,0.05,0.157c0.005,0.061,0.007,0.12,0.006,0.181c0.011-0.062,0.021-0.123,0.031-0.185
					c-0.06,0.224,0.019,0.105,0.233-0.354c0.189-0.11,0.378-0.221,0.567-0.331c0.208-0.067,0.447,0.017,0.605,0.146
					c-0.054-0.048-0.104-0.099-0.152-0.152c0.082,0.114,0.081,0.109-0.005-0.014c-0.035-0.052-0.233-0.473-0.125-0.197
					c-0.023-0.063-0.043-0.128-0.06-0.193c0.006,0.055,0.011,0.11,0.016,0.166c0-0.324-0.1-0.123-0.298,0.603
					c0.159-0.16,0.27-0.35,0.33-0.567c-0.019,0.066-0.054,0.123-0.105,0.17c-0.151,0.144-0.325,0.219-0.524,0.223
					c-0.062,0.003-0.453-0.163-0.24-0.042c-0.134-0.112-0.148-0.121-0.045-0.025c-0.099-0.143-0.11-0.155-0.034-0.038
					c-0.062-0.174-0.073-0.195-0.033-0.062c-0.067-0.24-0.014-0.529,0.163-0.712c0.189-0.11,0.378-0.221,0.567-0.331
					c0.585-0.127,1.229,0.559,1.102,1.123c0.039-0.171-0.118,0.185,0.069-0.108c-0.183,0.285,0.256-0.136-0.062,0.07
					c-0.107,0.059-0.222,0.089-0.345,0.092c0.386-0.05,0.456-0.06,0.212-0.03c-0.215,0.017-0.4-0.133-0.515-0.295
					c0.066,0.123,0.062,0.105-0.014-0.055c0.034,0.143,0.038,0.122,0.011-0.06c0.006,0.063,0.008,0.127,0.004,0.191
					c0.032-0.187,0.032-0.209,0-0.069c0.03-0.106,0.088-0.196,0.172-0.269c0.05-0.064,0.422-0.19,0.111-0.1
					c0.139-0.01,0.135-0.013-0.01-0.009c0.167,0.029,0.182,0.025,0.043-0.011c0.103,0.02,0.189,0.069,0.26,0.146
					c-0.097-0.101-0.082-0.077,0.044,0.071c-0.065-0.123-0.052-0.091,0.04,0.098c0.037,0.14,0.035,0.277-0.007,0.415
					c-0.066,0.22-0.2,0.395-0.403,0.523c-0.46,0.086-0.57,0.125-0.33,0.117c0.145,0.002,0.283-0.021,0.417-0.07
					c-0.348,0.084-0.629,0.017-0.845-0.203c0.093,0.097,0.078,0.076-0.043-0.062c0.064,0.124,0.059,0.105-0.017-0.054
					c0.068,0.191,0.024-0.225,0.011,0.131c0.018-0.446,0.43-0.686,0.896-0.567c0.186,0.047,0.353,0.261,0.129,0.02
					c0.207,0.224-0.044-0.105-0.082-0.179c0.13,0.252-0.048-0.156-0.066-0.219c-0.02-0.068-0.081-0.527-0.049-0.199
					c-0.009-0.088,0.027-0.52-0.028-0.14c0.048-0.325-0.023,0.039-0.145,0.169c-0.571,0.193-0.692,0.281-0.363,0.265
					c-0.044,0.014-0.082,0.005-0.115-0.026c0.179,0.081,0.098,0.022,0.177,0.161c-0.11-0.193,0.132-0.774-0.053-0.416
					c-0.126,0.244,0.006-0.008,0.176-0.065c0.111-0.031,0.223-0.031,0.335-0.001c0.169,0.083,0.192,0.091,0.069,0.022
					c0.14,0.115,0.16,0.123,0.061,0.026c0.106,0.145,0.125,0.158,0.055,0.039c0.123,0.229,0.101,0.412-0.007,0.642
					c-0.047,0.078-0.108,0.141-0.185,0.189c0.144-0.082,0.265-0.188,0.36-0.321c-0.327,0.23-0.713,0.195-1.157-0.104
					c-0.18-0.374-0.235-0.452-0.165-0.235c-0.03-0.082-0.03-0.164-0.001-0.246c-0.042,0.26-0.027,0.011,0.029-0.046
					c-1.162,1.185,0.656,3.005,1.819,1.818c1.057-1.078,0.911-3.56-0.981-3.6c-0.357-0.007-0.712,0.098-1.005,0.301
					c-0.337,0.234-0.418,0.305-0.686,0.61c-0.567,0.647-0.603,1.443-0.278,2.21c0.584,1.38,2.291,1.537,3.339,0.64
					c1.325-1.136,0.769-3.071-0.604-3.845c-0.688-0.388-1.625-0.457-2.327-0.077c-0.634,0.341-0.838,1.07-0.896,1.729
					c-0.099,1.11,0.48,2.497,1.422,3.109c1.384,0.902,2.965-0.336,2.898-1.855c-0.026-0.615-0.272-1.201-0.703-1.643
					c-0.215-0.22-0.531-0.394-0.829-0.465c-0.313-0.074-0.443-0.046-0.756-0.004c-0.131,0.018-0.099,0.014,0.099-0.011
					c-0.143,0.017-0.284,0.035-0.427,0.056c-1.227,0.326-1.482,1.552-1.037,2.593c0.453,1.06,1.896,1.337,2.868,0.964
					c1.133-0.436,1.549-1.645,1.237-2.77c-0.151-0.545-0.501-0.953-0.955-1.271c-0.243-0.171-0.609-0.247-0.901-0.263
					c-0.18-0.011-0.365,0.012-0.541,0.049c0.41-0.086-0.115,0.011-0.263,0.04c-1.019,0.206-1.605,1.344-1.721,2.27
					c-0.069,0.559,0.32,1.166,0.794,1.423c0.765,0.414,1.69,0.161,2.176-0.538c0.711-1.023,0.06-2.256-0.837-2.875
					c-1.181-0.814-2.479,0.016-2.909,1.188c0.11-0.189,0.221-0.379,0.331-0.567c-0.886,1.055-0.287,2.461,0.547,3.353
					c0.451,0.482,1.235,0.826,1.896,0.614c0.776-0.249,1.091-0.869,1.136-1.636c0.064-1.096-0.558-2.407-1.639-2.757
					c-0.905-0.293-1.927,0.429-1.974,1.355c-0.045,0.872,0.312,1.742,1.247,1.944c0.685,0.148,1.389-0.194,1.582-0.898
					C131.755,81.938,131.364,81.15,130.679,81.002L130.679,81.002z"/>
			</g>
		</g>
		<g>
			<g>
				<path fill="#45A4FF" d="M72.37,116.461c3.366,3.178,8.136,6.691,12.877,7.084c6.355,0.525,12.959-0.528,19.342-0.569
					c11.264-0.073,22.45-2.17,33.713-2.738c1.65-0.083,1.658-2.656,0-2.572c-10.097,0.51-20.183,2.483-30.261,2.702
					c-5.856,0.127-11.792,0.595-17.628,0.607c-2.552,0.006-5.518,0.506-7.859-0.695c-2.929-1.502-5.971-3.376-8.365-5.637
					C72.984,113.504,71.161,115.32,72.37,116.461L72.37,116.461z"/>
			</g>
		</g>
		<g>
			<g>
				<path fill="#45A4FF" d="M72.964,115.551c4.264,0.861,9.282,0.053,13.587-0.177c6.702-0.355,13.391-0.536,20.079-1.167
					c5.299-0.5,10.674-0.475,15.991-0.567c2.686-0.047,5.369-0.174,8.054-0.25c2.752-0.078,5.585,3.284,7.433,5.115
					c1.179,1.169,2.998-0.649,1.819-1.818c-1.952-1.935-4.083-3.732-6.391-5.226c-1.663-1.077-3.855-0.617-5.713-0.555
					c-5.816,0.191-11.632,0.271-17.448,0.521c-7.144,0.309-14.445,0.592-21.558,1.226c-4.661,0.416-10.555,1.35-15.169,0.418
					C72.028,112.743,71.339,115.223,72.964,115.551L72.964,115.551z"/>
			</g>
		</g>
		<g>
			<g>
				<path fill="#45A4FF" d="M72.773,116.406c0.425,2.155,0.352,4.475,0.34,6.664c-0.024,4.668,1.103,9.866,1.658,14.534
					c1.042,8.761,1.098,17.653,2.267,26.377c0.54,4.032,0.537,8.153,0.965,12.202c0.305,2.884-0.079,7.341,1.37,9.815
					c1.309,2.233,4.781,3.947,6.734,5.496c2.996,2.376,6.392,4.402,9.737,6.236c1.456,0.798,2.753-1.424,1.299-2.221
					c-2.832-1.553-5.515-3.295-8.172-5.126c-3.836-2.644-7.148-4.464-7.754-9.456c-0.951-7.832-1.811-15.751-2.159-23.636
					c-0.373-8.434-1.442-16.746-2.342-25.134c-0.577-5.381-0.418-11.138-1.463-16.437C74.933,114.096,72.454,114.786,72.773,116.406
					L72.773,116.406z"/>
			</g>
		</g>
		<g>
			<g>
				<path fill="#45A4FF" d="M84.292,123.356c0.864,4.021,0.844,8.369,0.89,12.47c0.084,7.518,1.239,14.742,1.934,22.195
					c0.606,6.507,1.626,12.994,2.129,19.518c0.42,5.446,0.523,10.882,1.481,16.275c0.29,1.632,2.769,0.938,2.48-0.684
					c-0.96-5.409-1.025-10.874-1.446-16.334c-0.531-6.885-1.602-13.723-2.242-20.596c-0.659-7.075-1.692-13.961-1.772-21.096
					c-0.046-4.1-0.11-8.41-0.974-12.433C86.425,121.051,83.945,121.739,84.292,123.356L84.292,123.356z"/>
			</g>
		</g>
		<g>
			<g>
				<path fill="#45A4FF" d="M93.641,196.185c4.307,3.254,12.081,1.408,17.023,1.512c9.586,0.2,19.125-1.407,28.748-1.271
					c1.66,0.023,1.657-2.549,0-2.572c-7.706-0.11-15.356,0.374-23.013,1.222c-3.761,0.416-7.69-0.027-11.469-0.012
					c-3.292,0.014-7.146,1.05-9.991-1.1C93.615,192.963,92.335,195.198,93.641,196.185L93.641,196.185z"/>
			</g>
		</g>
		<g>
			<g>
				<path fill="#45A4FF" d="M137.762,118.623c2.021,13.435,0.934,26.849,2.094,40.33c0.479,5.561,0.953,11.122,1.426,16.684
					c0.4,4.715,2.947,16.107-2.27,18.047c-1.541,0.572-0.875,3.06,0.684,2.48c6.652-2.473,4.681-7.979,4.711-13.981
					c0.032-6.197-1.067-12.605-1.596-18.779c-1.301-15.185-0.298-30.374-2.568-45.464
					C139.996,116.304,137.518,117.001,137.762,118.623L137.762,118.623z"/>
			</g>
		</g>
		<g>
			<g>
				<path fill="#45A4FF" d="M88.761,195.109c-2.794,8.82,13.985,8.1,18.674,8.153c7.701,0.088,21.967,1.923,24.637-7.622
					c0.448-1.601-2.034-2.279-2.48-0.684c-1.939,6.934-13.219,5.754-18.946,5.753c-3.772,0-21.21,0.788-19.403-4.917
					C91.744,194.207,89.26,193.534,88.761,195.109L88.761,195.109z"/>
			</g>
		</g>
		<g>
			<g>
				<path fill="#45A4FF" d="M99.352,202.918c-0.857,1.206-1.742,2.688-0.119,3.728c0.617,0.396,1.512,0.272,2.214,0.288
					c0.929,0.021,1.827-0.262,2.75-0.284c1.656-0.04,1.66-2.612,0-2.572c-0.719,0.018-1.422,0.187-2.135,0.262
					c-0.654,0.068-1.332,0.007-1.987-0.007c0.216,0.059,0.433,0.117,0.649,0.176c-0.44-0.248-0.414,0.028,0.077,0.827
					c0.063-0.114,0.131-0.226,0.207-0.332c0.177-0.269,0.378-0.524,0.565-0.786C102.538,202.861,100.305,201.579,99.352,202.918
					L99.352,202.918z"/>
			</g>
		</g>
		<g>
			<g>
				<path fill="#45A4FF" d="M117.958,204.833c0.586-0.13,0.992-0.191,1.615-0.169c0.178,0.006,0.325,0.04,0.454,0.107
					c-0.172-0.09,0.113,0.15,0.01-0.002c-0.027-0.042,0.034,0.175,0.036,0.275c0.026,1.657,2.599,1.66,2.572,0
					c-0.021-1.356-0.728-2.342-2.003-2.787c-1.048-0.365-2.319-0.138-3.368,0.095C115.655,202.711,116.342,205.19,117.958,204.833
					L117.958,204.833z"/>
			</g>
		</g>
		<g>
			<g>
				<path fill="#45A4FF" d="M95.957,140.431c-1.376,0.026-2.388,0.908-2.829,2.175c-0.398,1.146,0.03,2.793,1.209,3.309
					c2.511,1.099,4.8-2.372,3.409-4.489c-0.384-0.585-1.131-0.829-1.76-0.461c-0.581,0.34-0.847,1.173-0.461,1.76
					c0.033,0.05,0.162,0.357,0.069,0.093c0.11,0.315,0.004-0.247,0.018,0.085c0.013,0.341,0.065-0.246-0.007,0.091
					c-0.018,0.071-0.039,0.142-0.064,0.211c0.061-0.136,0.059-0.137-0.006-0.004c-0.018,0.036-0.221,0.336-0.043,0.106
					c-0.087,0.112-0.192,0.21-0.299,0.303c0.222-0.193-0.015-0.015-0.074,0.017c0.164-0.065,0.178-0.077,0.045-0.035
					c0.195-0.018,0.222-0.024,0.079-0.021c0.062-0.001,0.446,0.165,0.229,0.041c0.129,0.105,0.141,0.105,0.033,0
					c0.059,0.037,0.095,0.09,0.106,0.159c-0.019-0.049-0.072-0.4-0.045-0.119c-0.005-0.078-0.005-0.157,0-0.236
					c-0.024,0.145-0.021,0.142,0.009-0.01c0.009-0.041,0.153-0.37,0.04-0.137c0.037-0.07,0.078-0.138,0.123-0.202
					c-0.081,0.104-0.072,0.103,0.027-0.008c-0.166,0.17,0.07-0.042,0.122-0.07c-0.125,0.052-0.114,0.055,0.032,0.008
					c-0.137,0.013-0.125,0.015,0.037,0.008C97.613,142.972,97.616,140.399,95.957,140.431L95.957,140.431z"/>
			</g>
		</g>
		<g>
			<g>
				<path fill="#45A4FF" d="M101.745,134.318c0.822,4.84,1.2,9.897,1.688,14.79c0.163,1.635,2.737,1.65,2.572,0
					c-0.512-5.136-0.916-10.392-1.78-15.474C103.948,132.002,101.469,132.696,101.745,134.318L101.745,134.318z"/>
			</g>
		</g>
		<g>
			<g>
				<path fill="#45A4FF" d="M107.047,133.364c1.143,2.037,1.099,4.729,1.262,6.997c0.196,2.727,0.412,5.453,0.625,8.18
					c0.129,1.643,2.702,1.655,2.572,0c-0.245-3.135-0.486-6.27-0.713-9.405c-0.173-2.403-0.327-4.935-1.524-7.07
					C108.457,130.619,106.235,131.915,107.047,133.364L107.047,133.364z"/>
			</g>
		</g>
		<g>
			<g>
				<path fill="#45A4FF" d="M111.36,133.838c1.842,5.318,1.661,11.39,3.069,16.877c0.412,1.606,2.893,0.924,2.48-0.684
					c-1.417-5.521-1.212-11.514-3.069-16.877C113.302,131.597,110.816,132.266,111.36,133.838L111.36,133.838z"/>
			</g>
		</g>
		<g>
			<g>
				<path fill="#45A4FF" d="M118.308,129.87c1.411,6.926,2.116,14.274,2.577,21.328c0.107,1.646,2.681,1.657,2.572,0
					c-0.476-7.289-1.209-14.846-2.669-22.012C120.457,127.562,117.978,128.251,118.308,129.87L118.308,129.87z"/>
			</g>
		</g>
		<g>
			<g>
				<path fill="#45A4FF" d="M119.235,129.396c1.896,0.4,3.663-0.037,5.563-0.236c2.393-0.251,4.735-0.189,7.139-0.138
					c1.66,0.036,1.656-2.536,0-2.572c-1.829-0.04-3.657-0.079-5.486-0.118c-2.165-0.046-4.352,1.045-6.532,0.584
					C118.301,126.574,117.612,129.054,119.235,129.396L119.235,129.396z"/>
			</g>
		</g>
		<g>
			<g>
				<path fill="#45A4FF" d="M131.383,128.092c0.839,5.699,0.576,11.238,1.771,16.938c0.276,1.315,1.511,7.077-0.168,7.623
					c-2.435,0.791-6.246,0.338-8.823,0.391c-1.657,0.033-1.66,2.606,0,2.572c3.117-0.063,12.196,1.229,12.438-3.475
					c0.189-3.694-0.975-7.835-1.728-11.421c-0.923-4.398-0.359-8.887-1.011-13.312C133.623,125.771,131.145,126.47,131.383,128.092
					L131.383,128.092z"/>
			</g>
		</g>
		<g>
			<g>
				<path fill="#45A4FF" d="M121.273,151.548c0.356,1.127,0.84,2.127,1.651,2.997c1.134,1.216,2.949-0.607,1.819-1.818
					c-0.271-0.29-0.35-0.4-0.558-0.768c-0.206-0.364-0.289-0.641-0.433-1.095C123.256,149.288,120.772,149.962,121.273,151.548
					L121.273,151.548z"/>
			</g>
		</g>
		<g>
			<g>
				<path fill="#45A4FF" d="M124.022,135.356c-0.351-0.452-0.246-0.494-0.194-0.216c-0.068-0.365-0.006,0.098-0.002,0.173
					c0.021,0.334,0.056,0.672,0.13,0.999c0.088,0.387,0.302,0.706,0.554,1.002c0.427,0.5,1.033,0.512,1.626,0.427
					c1.338-0.191,1.766-1.795,1.789-2.914c0.036-1.66-2.536-1.656-2.572,0c-0.002,0.099-0.007,0.196-0.014,0.295
					c-0.014,0.136-0.007,0.103,0.019-0.099c-0.013,0.09-0.033,0.178-0.054,0.266c-0.016,0.061-0.033,0.12-0.055,0.179
					c0.098-0.296,0.012-0.051-0.036,0.024c0.045-0.091,0.111-0.16,0.201-0.208c0.045-0.017,0.091-0.033,0.136-0.05
					c-0.139,0.035-0.13,0.035,0.024-0.001c0.216,0.059,0.433,0.117,0.649,0.176c0.189,0.119,0.274,0.49,0.189,0.115
					c0.068,0.301-0.002-0.041-0.007-0.1c-0.009-0.109-0.014-0.22-0.021-0.329c-0.04-0.619-0.159-1.062-0.544-1.558
					c-0.431-0.556-1.37-0.449-1.819,0C123.48,134.08,123.594,134.804,124.022,135.356L124.022,135.356z"/>
			</g>
		</g>
		<g>
			<g>
				<path fill="#45A4FF" d="M125.565,142.723c-0.291,1.088-0.437,2.148-0.271,3.268c0.185,1.241,1.338,2.476,2.622,2.5
					c0.543,0.011,1.076-0.079,1.547-0.359c0.7-0.416,0.788-1.098,0.975-1.805c0.391-1.483-0.762-2.822-1.701-3.806
					c-1.148-1.202-2.965,0.62-1.819,1.818c0.375,0.394,0.819,0.805,0.999,1.332c0.058,0.172-0.042,0.453-0.08,0.622
					c0.081-0.295,0.219-0.423,0.413-0.383c-0.165,0.02-0.338,0.008-0.504,0.005c0.217,0.059,0.433,0.117,0.649,0.176
					c-1.017-0.487-0.584-1.807-0.35-2.685C128.475,141.802,125.993,141.121,125.565,142.723L125.565,142.723z"/>
			</g>
		</g>
		<g>
			<g>
				<path fill="#45A4FF" d="M93.021,161.149c2.016,8.395,1.793,17.198,3.067,25.706c0.245,1.637,2.724,0.938,2.48-0.684
					c-1.274-8.509-1.05-17.308-3.067-25.706C95.114,158.854,92.633,159.537,93.021,161.149L93.021,161.149z"/>
			</g>
		</g>
		<g>
			<g>
				<path fill="#45A4FF" d="M94.157,162.035c5.375,0.659,10.618-0.376,15.954-0.866c6.485-0.596,13.012,1.162,19.521,0.696
					c0.257-0.019,5.009-0.435,5.104-0.094c0.59,2.105,0.422,4.633,0.541,6.803c0.174,3.18,0.733,6.312,1.065,9.48
					c0.326,3.104,0.636,6.219,0.821,9.335c-0.009-0.142-10.107,0.353-10.868,0.384c-4.424,0.178-8.911,0.479-13.31,0.889
					c-3.27,0.305-14.295,3.167-14.741-2.344c-0.132-1.642-2.706-1.654-2.572,0c0.265,3.273,1.204,5.431,4.736,5.456
					c7.047,0.052,13.893-0.713,20.926-1.056c4.956-0.242,10.124-0.214,15.041-0.867c3.628-0.482,3.389-2.395,3.124-5.559
					c-0.356-4.271-0.704-8.573-1.406-12.803c-0.493-2.97,0.804-9.384-1.503-11.69c-0.948-0.948-3.085-0.642-4.256-0.635
					c-4.257,0.024-8.409,0.048-12.676-0.128c-3.949-0.163-7.848-0.879-11.805-0.219c-4.477,0.747-9.171,1.199-13.697,0.645
					C92.513,159.262,92.533,161.836,94.157,162.035L94.157,162.035z"/>
			</g>
		</g>
		<g>
			<g>
				<path fill="#45A4FF" d="M103.788,211.701c2.501-0.669,5.569-0.345,8.131-0.371c3.609-0.037,7.412-0.188,10.983,0.43
					c1.622,0.28,2.316-2.198,0.684-2.48c-3.531-0.61-7.201-0.529-10.771-0.527c-3.076,0.002-6.701-0.336-9.71,0.469
					C101.503,209.648,102.184,212.131,103.788,211.701L103.788,211.701z"/>
			</g>
		</g>
		<g>
			<g>
				<path fill="#45A4FF" d="M125.492,213.733c6.154,7.159,6.974,16.57,6.267,25.676c-0.56,7.202-1.724,16.826-8.225,21.303
					c-1.356,0.934-0.071,3.165,1.299,2.221c6.999-4.819,8.417-13.905,9.331-21.785c1.196-10.322,0.118-21.124-6.853-29.232
					C126.228,210.654,124.417,212.482,125.492,213.733L125.492,213.733z"/>
			</g>
		</g>
		<g>
			<g>
				<path fill="#45A4FF" d="M103.468,263.645c4.096,0.907,8.416,0.856,12.585,0.727c2.469-0.076,7.164,0.223,9.122-1.706
					c1.183-1.165-0.637-2.983-1.819-1.818c-1.435,1.412-6.421,0.925-8.271,0.982c-3.605,0.112-7.396,0.118-10.933-0.665
					C102.536,260.806,101.849,263.286,103.468,263.645L103.468,263.645z"/>
			</g>
		</g>
		<g>
			<g>
				<path fill="#45A4FF" d="M100.887,213.636c9.17,4.435,10.474,15.301,10.149,24.438c-0.215,6.039,0.669,17.459-5.979,20.734
					c-1.488,0.733-0.184,2.951,1.299,2.221c7.64-3.764,7-16.062,7.252-22.955c0.369-10.085-1.397-21.811-11.422-26.658
					C100.699,210.696,99.394,212.914,100.887,213.636L100.887,213.636z"/>
			</g>
		</g>
		<g>
			<g>
				<path fill="#45A4FF" d="M97.21,211.831c-6.684,5.369-8.383,16.679-7.289,24.7c1.232,9.026,2.75,19.869,12.451,23.471
					c1.559,0.579,2.225-1.908,0.684-2.48c-8.294-3.079-9.116-12.566-10.431-20.041c-1.337-7.603,0.08-18.75,6.404-23.831
					C100.323,212.61,98.49,210.803,97.21,211.831L97.21,211.831z"/>
			</g>
		</g>
		<g>
			<g>
				<path fill="#45A4FF" d="M103.009,259.991c-0.453,2.363-3.531,1.12-4.924,0.468c-2.463-1.15-3.903-2.386-4.566-5.096
					c-0.394-1.611-2.875-0.928-2.48,0.684c1.008,4.122,3.635,5.832,7.427,7.36c2.753,1.109,6.391,0.575,7.024-2.732
					C105.8,259.055,103.321,258.363,103.009,259.991L103.009,259.991z"/>
			</g>
		</g>
		<g>
			<g>
				<path fill="#45A4FF" d="M99.886,218.386c-3.726,1.612-4.894,7.52-5.063,11.122c-0.267,5.672,0.583,11.864,3.908,16.595
					c0.946,1.346,3.178,0.062,2.222-1.299c-2.504-3.563-3.155-7.502-3.568-11.761c-0.305-3.143,0.263-10.906,3.8-12.437
					C102.704,219.949,101.393,217.734,99.886,218.386L99.886,218.386z"/>
			</g>
		</g>
		<g>
			<g>
				<path fill="#45A4FF" d="M104.002,225.144c3.476,5.23,4.543,12.072-0.022,17.089c-1.114,1.224,0.7,3.048,1.819,1.818
					c5.337-5.863,4.565-13.975,0.425-20.206C105.31,222.471,103.081,223.757,104.002,225.144L104.002,225.144z"/>
			</g>
		</g>
		<g>
			<g>
				<path fill="#45A4FF" d="M102.814,232.365c0.755,4.229,3.046,12.969-3.014,14.424c-1.613,0.387-0.929,2.867,0.684,2.48
					c7.833-1.88,5.836-11.847,4.811-17.588C105.004,230.05,102.525,230.743,102.814,232.365L102.814,232.365z"/>
			</g>
		</g>
		<g>
			<g>
				<path fill="#45A4FF" d="M99.383,245.756c-0.938,2.839,1.483,6.406,4.666,5.805c2.673-0.505,3.757-3.311,4.649-5.549
					c0.615-1.542-1.874-2.205-2.48-0.684c-0.473,1.187-0.947,2.425-1.878,3.333c-0.482,0.47-1.071,0.467-1.619,0.144
					c-0.913-0.54-1.177-1.397-0.857-2.365C102.386,244.859,99.901,244.188,99.383,245.756L99.383,245.756z"/>
			</g>
		</g>
		<g>
			<g>
				<path fill="#45A4FF" d="M108.827,218.862c4.893,0.361,9.899,0.074,14.802,0.037c1.658-0.013,1.66-2.585,0-2.572
					c-4.902,0.037-9.909,0.324-14.802-0.037C107.171,216.168,107.183,218.741,108.827,218.862L108.827,218.862z"/>
			</g>
		</g>
		<g>
			<g>
				<path fill="#45A4FF" d="M113.313,225.199c2.53,1.02,5.585,0.453,8.238,0.294c1.648-0.099,1.657-2.672,0-2.572
					c-2.403,0.144-5.276,0.716-7.555-0.202C112.458,222.099,111.795,224.588,113.313,225.199L113.313,225.199z"/>
			</g>
		</g>
		<g>
			<g>
				<path fill="#45A4FF" d="M115.006,230.368c1.142,0.672,2.379,0.55,3.655,0.509c2-0.065,4.014-0.14,6.011,0.03
					c1.654,0.142,1.641-2.433,0-2.572c-1.445-0.123-2.886-0.109-4.335-0.067c-1.071,0.032-3.072,0.444-4.032-0.12
					C114.871,227.305,113.578,229.528,115.006,230.368L115.006,230.368z"/>
			</g>
		</g>
		<g>
			<g>
				<path fill="#45A4FF" d="M115.914,235.652c3.609,1.094,7.561,0.924,11.289,0.892c1.658-0.014,1.659-2.587,0-2.572
					c-3.501,0.03-7.218,0.226-10.605-0.8C115.006,232.689,114.331,235.173,115.914,235.652L115.914,235.652z"/>
			</g>
		</g>
		<g>
			<g>
				<path fill="#45A4FF" d="M113.77,243.363c3.067,0.297,6.38,0.574,9.428-0.01c1.629-0.312,0.938-2.791-0.684-2.48
					c-2.791,0.534-5.938,0.189-8.744-0.082C112.118,240.631,112.134,243.205,113.77,243.363L113.77,243.363z"/>
			</g>
		</g>
		<g>
			<g>
				<path fill="#45A4FF" d="M115.054,246.935c1.594,2.536,6.184,1.267,8.51,0.751c1.619-0.358,0.933-2.839-0.684-2.48
					c-1.09,0.241-2.174,0.477-3.287,0.574c-0.437,0.038-2.157,0.111-2.317-0.144C116.395,244.235,114.168,245.525,115.054,246.935
					L115.054,246.935z"/>
			</g>
		</g>
		<g>
			<g>
				<path fill="#45A4FF" d="M123.201,219.216c4.67,6.002,4.084,14.172,3.577,21.319c-0.35,4.922-1.54,9.156-4.059,13.362
					c-0.854,1.427,1.37,2.72,2.222,1.299c2.771-4.629,3.921-9.288,4.409-14.661c0.721-7.93,0.781-16.569-4.33-23.138
					C124.003,216.089,122.196,217.924,123.201,219.216L123.201,219.216z"/>
			</g>
		</g>
		<g>
			<g>
				<path fill="#45A4FF" d="M104.855,49.36c1.86-3.82,0.432-9.53-0.581-13.452c-0.415-1.605-2.896-0.924-2.48,0.684
					c0.403,1.561,0.675,3.159,0.916,4.752c0.297,1.967,0.836,4.845-0.076,6.718C101.911,49.547,104.128,50.852,104.855,49.36
					L104.855,49.36z"/>
			</g>
		</g>
		<g>
			<g>
				<path fill="#45A4FF" d="M91.152,28.247c0.648,12.665,22.822,11.294,20.28-2.199c-0.307-1.629-2.786-0.938-2.48,0.684
					c1.853,9.832-14.772,10.407-15.228,1.516C93.64,26.597,91.067,26.588,91.152,28.247L91.152,28.247z"/>
			</g>
		</g>
		<g>
			<g>
				<path fill="#45A4FF" d="M101.487,18.602c-7.417-1.127-7.326,10.84-0.356,11.456c1.362,0.12,2.884-0.146,4.046-0.88
					c1.36-0.859,1.336-2.443,1.271-3.877c-0.135-2.95-1.777-5.635-4.649-6.552c-1.585-0.506-2.258,1.978-0.684,2.48
					c1.223,0.391,2.006,1.317,2.441,2.504c0.317,0.864,0.346,1.788,0.339,2.697c-0.007,0.857-0.792,0.943-1.53,1.035
					c-1.638,0.202-2.723-0.223-3.546-1.681c-0.882-1.562-0.532-5.085,1.984-4.703C102.425,21.328,103.123,18.85,101.487,18.602
					L101.487,18.602z"/>
			</g>
		</g>
		<g>
			<g>
				<path fill="#45A4FF" d="M144.595,126.279c2.076,2.761-0.345,6.513-2.838,8.119c-1.389,0.895-0.101,3.123,1.299,2.221
					c3.576-2.305,6.72-7.702,3.761-11.639C145.832,123.672,143.598,124.952,144.595,126.279L144.595,126.279z"/>
			</g>
		</g>
		<g>
			<g>
				<path fill="#45A4FF" d="M143.124,143.597c5.475,0.667,10.161-5.889,9.644-10.936c-0.167-1.634-2.741-1.649-2.572,0
					c0.384,3.75-2.918,8.868-7.071,8.363C141.479,140.824,141.499,143.399,143.124,143.597L143.124,143.597z"/>
			</g>
		</g>
		<g>
			<g>
				<path fill="#45A4FF" d="M144.046,149.878c2.602,1.14,7.633,1.359,9.971-0.536c2.584-2.094,5.373-4.389,4.078-8.032
					c-0.551-1.552-3.037-0.884-2.48,0.684c0.84,2.363-1.22,3.742-2.85,5.071c-1.487,1.211-5.643,1.371-7.42,0.593
					C143.84,146.998,142.529,149.214,144.046,149.878L144.046,149.878z"/>
			</g>
		</g>
		<g>
			<g>
				<path fill="#45A4FF" d="M148.28,167.84c-1.283,4.052,1.707,7.012,5.381,8.074c3.951,1.143,8.199,0.003,10.02-3.88
					c0.7-1.493-1.518-2.8-2.221-1.299c-1.204,2.567-3.46,3.319-6.149,2.911c-2.598-0.394-5.521-2.057-4.55-5.123
					C151.263,166.938,148.779,166.264,148.28,167.84L148.28,167.84z"/>
			</g>
		</g>
		<g>
			<g>
				<path fill="#45A4FF" d="M153.566,174.409c-0.649,1.402-1.446,2.713-2.276,4.014c-0.896,1.403,1.331,2.691,2.221,1.299
					c0.831-1.301,1.627-2.611,2.276-4.014c0.295-0.637,0.186-1.381-0.461-1.76C154.765,173.619,153.86,173.773,153.566,174.409
					L153.566,174.409z"/>
			</g>
		</g>
		<g>
			<g>
				<path fill="#45A4FF" d="M144.422,183.958c1.221-2.442,3.566-4.144,6.357-3.272c3.559,1.111,2.514,5.458,0.588,7.457
					c-1.151,1.193,0.666,3.016,1.818,1.818c3.18-3.299,3.6-8.361-0.427-11.137c-3.836-2.644-8.743,0.205-10.559,3.835
					C141.46,184.139,143.68,185.441,144.422,183.958L144.422,183.958z"/>
			</g>
		</g>
		<g>
			<g>
				<path fill="#45A4FF" d="M65.232,127.947c-1.293,3.946-0.501,7.071,1.806,10.403c2.093,3.023,5.33,4.271,8.932,3.928
					c1.636-0.155,1.651-2.729,0-2.572c-2.972,0.283-5.279-0.587-6.997-3.067c-1.765-2.549-2.246-5-1.26-8.008
					C68.23,127.05,65.746,126.378,65.232,127.947L65.232,127.947z"/>
			</g>
		</g>
		<g>
			<g>
				<path fill="#45A4FF" d="M59.569,136.06c-2.433,7.369,5.681,12.339,11.986,12.494c1.66,0.041,1.656-2.531,0-2.572
					c-4.659-0.115-11.386-3.542-9.505-9.238C62.571,135.163,60.086,134.492,59.569,136.06L59.569,136.06z"/>
			</g>
		</g>
		<g>
			<g>
				<path fill="#45A4FF" d="M54.592,144.871c0.338,1.424,0.279,3.037,0.917,4.381c0.662,1.395,1.676,2.42,2.848,3.404
					c2.766,2.325,6.414,3.227,9.95,3.376c1.659,0.07,1.652-2.503,0-2.572c-2.859-0.121-5.839-0.797-8.13-2.622
					c-1.092-0.87-2.105-1.821-2.492-3.207c-0.313-1.124-0.342-2.308-0.612-3.443C56.688,142.574,54.208,143.258,54.592,144.871
					L54.592,144.871z"/>
			</g>
		</g>
		<g>
			<g>
				<path fill="#45A4FF" d="M50.647,159.156c3.042,4.944,12.11,8.371,15.895,2.353c0.885-1.409-1.341-2.699-2.222-1.299
					c-2.695,4.287-9.5,0.82-11.451-2.353C52.001,156.447,49.775,157.739,50.647,159.156L50.647,159.156z"/>
			</g>
		</g>
		<g>
			<g>
				<path fill="#45A4FF" d="M53.269,172.513c3.213,1.894,6.072,2.729,9.709,1.459c3.352-1.17,5.079-4.773,6.161-7.884
					c0.547-1.571-1.939-2.24-2.48-0.684c-0.801,2.301-1.865,4.522-3.978,5.885c-2.712,1.749-5.676,0.438-8.113-0.997
					C53.135,169.447,51.841,171.672,53.269,172.513L53.269,172.513z"/>
			</g>
		</g>
		<g>
			<g>
				<path fill="#45A4FF" d="M58.289,178.974c6.721,4.469,14.181-1.295,14.746-8.389c0.132-1.655-2.441-1.642-2.572,0
					c-0.421,5.278-5.926,9.458-10.875,6.168C58.202,175.831,56.915,178.061,58.289,178.974L58.289,178.974z"/>
			</g>
		</g>
		<g>
			<g>
				<path fill="#45A4FF" d="M66.167,181.735c0.504,0.64,0.944,1.323,1.368,2.018c0.863,1.413,3.088,0.121,2.222-1.299
					c-0.541-0.885-1.128-1.723-1.77-2.537c-0.435-0.552-1.367-0.452-1.819,0C65.628,180.456,65.734,181.186,66.167,181.735
					L66.167,181.735z"/>
			</g>
		</g>
		<g>
			<g>
				<path fill="#45A4FF" d="M69.889,193.165c-1.526-1.821-2.719-5.563-0.281-7.07c2.712-1.676,5.339,1.41,6.093,3.787
					c0.5,1.575,2.983,0.902,2.48-0.684c-1.355-4.274-5.463-7.528-9.873-5.324c-4.273,2.135-2.671,8.207-0.239,11.109
					C69.137,196.257,70.947,194.427,69.889,193.165L69.889,193.165z"/>
			</g>
		</g>
		<g>
			<g>
				<path fill="#45A4FF" d="M111.704,255.853c4.289,0.273,8.563-0.393,12.854-0.12c1.657,0.105,1.646-2.468,0-2.572
					c-4.29-0.272-8.564,0.394-12.854,0.12C110.047,253.175,110.057,255.748,111.704,255.853L111.704,255.853z"/>
			</g>
		</g>
		<g>
			<g>
				<path fill="#45A4FF" d="M147.984,156.448c2.832,1.75,6.033,1.837,9.229,1.142c3.695-0.804,5.03-3.858,6.1-7.201
					c0.507-1.584-1.978-2.258-2.48-0.684c-0.781,2.441-1.635,4.712-4.303,5.404c-2.447,0.635-5.084,0.454-7.247-0.882
					C147.867,153.353,146.577,155.578,147.984,156.448L147.984,156.448z"/>
			</g>
		</g>
		<g>
			<g>
				<path fill="#45A4FF" d="M149.579,160.986c1.593,4.319,4.479,5.95,8.931,5.88c3.864-0.062,6.397-2.196,7.472-5.843
					c0.47-1.595-2.013-2.271-2.48-0.684c-0.781,2.65-2.291,3.8-4.991,3.954c-3.12,0.177-5.325-0.942-6.45-3.991
					C151.49,158.76,149.004,159.427,149.579,160.986L149.579,160.986z"/>
			</g>
		</g>
		<g>
			<g>
				<path fill="#45A4FF" d="M101.168,173.729c-0.159-0.198-0.176-0.147-0.053,0.152c0.02,0.179,0.03,0.358,0.031,0.538
					c0.011,0.343-0.014,0.688-0.024,1.029c-0.044,1.412,0.287,2.863,0.28,4.289c-0.008,1.659,2.565,1.658,2.572,0
					c0.009-1.953-0.131-3.966-0.289-5.911c-0.12-1.479-0.94-2.658-2.517-2.67C99.508,171.145,99.51,173.717,101.168,173.729
					L101.168,173.729z"/>
			</g>
		</g>
		<g>
			<g>
				<path fill="#45A4FF" d="M100.981,182.478c0.811,0.001,1.621-0.142,2.396-0.374c1.585-0.476,0.909-2.958-0.684-2.48
					c-0.569,0.17-1.119,0.282-1.713,0.282C99.322,179.904,99.322,182.477,100.981,182.478L100.981,182.478z"/>
			</g>
		</g>
		<g>
			<g>
				<path fill="#45A4FF" d="M100.698,169.624c1.659,0,1.659-2.572,0-2.572S99.039,169.624,100.698,169.624L100.698,169.624z"/>
			</g>
		</g>
		<g>
			<g>
				<path fill="#45A4FF" d="M109.991,172.254c-0.983-0.569-2.262-0.906-3.179,0.009c-0.976,0.975-1.675,2.35-1.771,3.735
					c-0.083,1.201-0.143,2.829,0.792,3.758c1.077,1.069,2.209,1.669,3.733,1.788c1.655,0.13,1.643-2.443,0-2.572
					c-1.329-0.104-1.982-0.899-1.991-2.151c-0.004-0.645,0.096-1.222,0.378-1.804c0.258-0.532,0.277-0.809,0.739-0.542
					C110.131,175.307,111.426,173.084,109.991,172.254L109.991,172.254z"/>
			</g>
		</g>
		<g>
			<g>
				<path fill="#45A4FF" d="M110.399,170.802c-0.182,0.137-0.385,0.222-0.566,0.359c-0.558,0.422-0.848,1.101-0.461,1.76
					c0.322,0.551,1.199,0.886,1.76,0.461c0.182-0.137,0.385-0.222,0.566-0.359c0.558-0.422,0.847-1.101,0.461-1.76
					C111.836,170.712,110.96,170.378,110.399,170.802L110.399,170.802z"/>
			</g>
		</g>
		<g>
			<g>
				<path fill="#45A4FF" d="M109.359,172.181c-0.617,1.006-0.161,2.709-0.019,3.782c0.217,1.625,0.444,3.271,0.843,4.863
					c0.401,1.609,2.883,0.926,2.48-0.684c-0.287-1.149-0.466-2.328-0.647-3.498c-0.116-0.747-0.213-1.496-0.287-2.249
					c-0.025-0.251-0.04-0.503-0.054-0.756c-0.015-0.304,0.104-0.485-0.095-0.16C112.451,172.062,110.225,170.77,109.359,172.181
					L109.359,172.181z"/>
			</g>
		</g>
		<g>
			<g>
				<path fill="#45A4FF" d="M107.243,185.351c1.063,1.618,2.978,1.869,4.462,0.669c1.62-1.31,1.179-3.362,1.183-5.159
					c0.003-1.659-2.569-1.659-2.572,0c-0.002,0.824,0.206,1.711,0.066,2.527c-0.063,0.373-0.551,1.223-0.917,0.664
					C108.559,182.672,106.33,183.959,107.243,185.351L107.243,185.351z"/>
			</g>
		</g>
		<g>
			<g>
				<path fill="#45A4FF" d="M115.09,174.378c0.189-0.183,0.38-0.364,0.57-0.547c1.202-1.147-0.62-2.964-1.819-1.818
					c-0.19,0.182-0.38,0.364-0.57,0.547C112.075,173.713,113.896,175.529,115.09,174.378L115.09,174.378z"/>
			</g>
		</g>
		<g>
			<g>
				<path fill="#45A4FF" d="M115.663,173.615c0.703-0.156,1.365-0.277,2.085-0.274c1.659,0.009,1.659-2.564,0-2.572
					c-0.93-0.005-1.863,0.164-2.769,0.366c-0.685,0.152-1.078,0.932-0.898,1.582C114.273,173.417,114.979,173.768,115.663,173.615
					L115.663,173.615z"/>
			</g>
		</g>
		<g>
			<g>
				<path fill="#45A4FF" d="M117.187,173.515c0.859,0.021,1.14,6.497,1.144,6.96c0.014,1.658,2.586,1.659,2.572,0
					c-0.017-2.111-0.313-4.318-0.758-6.386c-0.336-1.567-1.193-3.103-2.958-3.146C115.526,170.9,115.53,173.474,117.187,173.515
					L117.187,173.515z"/>
			</g>
		</g>
		<g>
			<g>
				<path fill="#45A4FF" d="M118.599,174.511c-2.513,0.316-5.271,2.215-5.221,5.026c0.042,2.471,3.107,2.697,4.901,2.328
					c1.624-0.334,0.935-2.813-0.684-2.48c-0.256,0.053-1.646,0.146-1.649-0.033c-0.02-1.179,1.673-2.145,2.652-2.269
					c0.695-0.088,1.286-0.519,1.286-1.286C119.885,175.162,119.296,174.423,118.599,174.511L118.599,174.511z"/>
			</g>
		</g>
		<g>
			<g>
				<path fill="#45A4FF" d="M121.239,166.385c0.388,2.898,0.442,5.854,0.673,8.766c0.17,2.141,0.161,4.203,2.294,5.242
					c1.484,0.724,2.789-1.494,1.299-2.221c-1.521-0.741-1.137-4.789-1.271-6.186c-0.178-1.867-0.174-3.74-0.423-5.602
					C123.595,164.766,121.02,164.744,121.239,166.385L121.239,166.385z"/>
			</g>
		</g>
		<g>
			<g>
				<path fill="#45A4FF" d="M120.216,171.16c1.76,0.011,3.488-0.293,5.197-0.688c1.616-0.373,0.931-2.853-0.684-2.48
					c-1.495,0.345-2.975,0.604-4.514,0.596C118.557,168.578,118.558,171.15,120.216,171.16L120.216,171.16z"/>
			</g>
		</g>
		<g>
			<g>
				<path fill="#45A4FF" d="M129.269,172.977c0.703-0.157,1.366-0.278,2.086-0.274c1.659,0.011,1.658-2.562,0-2.572
					c-0.931-0.006-1.864,0.163-2.77,0.366c-0.685,0.153-1.077,0.932-0.898,1.582C127.879,172.778,128.585,173.13,129.269,172.977
					L129.269,172.977z"/>
			</g>
		</g>
		<g>
			<g>
				<path fill="#45A4FF" d="M130.792,172.876c0.86,0.021,1.141,6.494,1.145,6.958c0.013,1.658,2.586,1.659,2.572,0
					c-0.018-2.11-0.314-4.317-0.758-6.384c-0.336-1.567-1.193-3.103-2.959-3.146C129.132,170.262,129.137,172.835,130.792,172.876
					L130.792,172.876z"/>
			</g>
		</g>
		<g>
			<g>
				<path fill="#45A4FF" d="M132.205,173.872c-2.513,0.316-5.27,2.214-5.221,5.026c0.042,2.471,3.107,2.697,4.901,2.326
					c1.624-0.336,0.935-2.815-0.684-2.48c-0.256,0.053-1.646,0.148-1.649-0.032c-0.02-1.178,1.673-2.144,2.652-2.268
					c0.695-0.087,1.286-0.519,1.286-1.286C133.491,174.523,132.902,173.784,132.205,173.872L132.205,173.872z"/>
			</g>
		</g>
		<g>
			<g>
				<path fill="#45A4FF" d="M94.411,91.857c0.506,3.489,1.9,4.217,5.342,4.664c4.16,0.541,8.589-0.762,12.779-0.751
					c1.659,0.004,1.659-2.568,0-2.572c-2.656-0.007-5.203,0.361-7.833,0.577c-2.809,0.23-7.258,1.188-7.808-2.602
					C96.654,89.537,94.175,90.235,94.411,91.857L94.411,91.857z"/>
			</g>
		</g>
	</g>
</g>
</svg>
