<?xml version="1.0" encoding="utf-8"?>
<!-- Generator: Adobe Illustrator 16.0.3, SVG Export Plug-In . SVG Version: 6.00 Build 0)  -->
<!DOCTYPE svg PUBLIC "-//W3C//DTD SVG 1.1//EN" "http://www.w3.org/Graphics/SVG/1.1/DTD/svg11.dtd">
<svg version="1.1" xmlns="http://www.w3.org/2000/svg" xmlns:xlink="http://www.w3.org/1999/xlink" x="0px" y="0px" width="216px"
	 height="288px" viewBox="0 0 216 288" enable-background="new 0 0 216 288" xml:space="preserve">
<g id="Layer_1" display="none">
	<rect x="-764.979" y="-298" display="inline" fill="#203245" width="1744.957" height="882"/>
</g>
<g id="Layer_2" display="none">
</g>
<g id="Layer_3">
	<g>
		<g>
			<g>
				<path fill="#45A4FF" d="M66.081,45.798c4.507,1.157,9.453-0.184,14.101,0.043c5.194,0.253,10.372,0.067,15.564,0.042
					c4.797-0.023,9.583-0.325,14.396-0.183c5.354,0.158,10.688,1.913,16.052,1.101c1.637-0.248,0.939-2.726-0.684-2.48
					c-5.037,0.762-10.326-0.897-15.368-1.193c-4.391-0.258-8.812,0.086-13.193,0.107c-4.448,0.021-8.883,0.138-13.334,0.118
					c-2.667-0.013-5.318-0.194-7.987-0.128c-2.991,0.074-5.897,0.854-8.864,0.093C65.157,42.904,64.475,45.386,66.081,45.798
					L66.081,45.798z"/>
			</g>
		</g>
		<g>
			<g>
				<path fill="#45A4FF" d="M125.261,46.839c2.055,2.539,3.2,5.217,5.872,7.232c2.402,1.812,5.155,3.306,7.952,4.408
					c1.545,0.609,2.208-1.879,0.684-2.48c-2.605-1.027-5.061-2.53-7.338-4.149c-2.414-1.717-3.527-4.576-5.352-6.83
					C126.036,43.729,124.228,45.562,125.261,46.839L125.261,46.839z"/>
			</g>
		</g>
		<g>
			<g>
				<path fill="#45A4FF" d="M61.649,46.554c1.46,1.723,2.833,3.513,4.251,5.271c1.713,2.124,3.733,3.993,5.333,6.207
					c0.962,1.331,3.195,0.049,2.222-1.299c-1.397-1.933-3.059-3.621-4.631-5.407c-1.871-2.124-3.525-4.432-5.354-6.592
					C62.394,43.467,60.583,45.297,61.649,46.554L61.649,46.554z"/>
			</g>
		</g>
		<g>
			<g>
				<path fill="#45A4FF" d="M73.293,59.771c10.949-0.373,21.877-1.459,32.879-0.637c10.087,0.754,21.543,3.057,31.44,0.56
					c1.608-0.405,0.926-2.887-0.684-2.48c-10.169,2.565-22.298-0.019-32.623-0.791C93.973,55.65,83.6,56.848,73.293,57.199
					C71.639,57.255,71.634,59.828,73.293,59.771L73.293,59.771z"/>
			</g>
		</g>
		<g>
			<g>
				<path fill="#45A4FF" d="M58.719,48.544c1.123,3.274,0.721,7.117,1.247,10.52c0.763,4.939,1.778,9.925,2.271,14.894
					c0.402,4.053-1.072,7.801-1.503,11.759c-0.395,3.629-0.274,7.199,0.245,10.807c0.235,1.637,2.714,0.938,2.48-0.684
					c-1.178-8.18,2.303-15.844,1.138-23.9c-0.714-4.94-1.688-9.82-2.296-14.779c-0.374-3.048-0.098-6.375-1.102-9.3
					C60.665,46.301,58.179,46.971,58.719,48.544L58.719,48.544z"/>
			</g>
		</g>
		<g>
			<g>
				<path fill="#45A4FF" d="M70.343,58.699c0.208,1.394,0.18,3.057,0.556,4.424c0.375,1.362,1.464,1.695,1.511,3.339
					c0.121,4.193-0.977,8.44-1.424,12.603c-0.448,4.166-0.087,8.743,0.281,12.902c0.383,4.315,0.424,8.695,1.122,12.977
					c0.266,1.634,2.745,0.938,2.48-0.684c-0.811-4.977-1.193-10.529-1.172-15.572c0.019-4.635-0.296-8.927,0.351-13.557
					c0.496-3.547,1.253-7.206,0.774-10.789c-0.074-0.556-0.364-1.111-0.808-1.473c-1.307-1.065-0.963-3.341-1.189-4.854
					C72.578,56.379,70.1,57.077,70.343,58.699L70.343,58.699z"/>
			</g>
		</g>
		<g>
			<g>
				<path fill="#45A4FF" d="M61.525,98.537c1.749,1.213,3.253,2.738,5.071,3.856c2.097,1.29,4.115,2.533,6.104,4.01
					c1.334,0.99,2.615-1.245,1.299-2.222c-1.812-1.345-3.593-2.777-5.632-3.77c-2.066-1.005-3.666-2.794-5.543-4.097
					C61.457,95.367,60.173,97.599,61.525,98.537L61.525,98.537z"/>
			</g>
		</g>
		<g>
			<g>
				<path fill="#45A4FF" d="M72.994,107.402c4.291,0.674,8.975,0.623,13.315,0.592c6.196-0.044,12.338-0.101,18.544,0.018
					c6.182,0.118,12.344-0.551,18.532-0.329c4.551,0.164,9.6,0.733,14.08-0.022c1.633-0.275,0.938-2.754-0.684-2.48
					c-4.756,0.802-10.467,0.036-15.309-0.138c-5.533-0.2-11.085,0.384-16.62,0.397c-5.639,0.013-11.216-0.529-16.856-0.099
					c-4.522,0.345-9.819,0.288-14.32-0.419C72.056,104.667,71.359,107.145,72.994,107.402L72.994,107.402z"/>
			</g>
		</g>
		<g>
			<g>
				<path fill="#45A4FF" d="M136.644,58.847c-0.047,4.944-0.105,9.924-0.393,14.862c-0.326,5.607,0.541,11.474-1.256,16.877
					c-0.96,2.885-3.1,6.079-2.289,9.207c0.219,0.841,1.199,1.508,1.809,2.016c1.896,1.577,1.445,4.583,1.914,6.891
					c0.33,1.625,2.809,0.936,2.48-0.684c-0.775-3.825,0.533-5.517-2.575-8.026c-2.858-2.309,1.178-8.459,1.923-11.373
					c1.193-4.657,0.412-10.136,0.566-14.908c0.16-4.955,0.346-9.908,0.393-14.862C139.232,57.188,136.659,57.189,136.644,58.847
					L136.644,58.847z"/>
			</g>
		</g>
		<g>
			<g>
				<path fill="#45A4FF" d="M82.895,80.639c0.032,0.013,0.064,0.025,0.096,0.038c0.154,0.154,0.308,0.308,0.461,0.461
					c0.028,0.106,0.055,0.212,0.083,0.318c0-0.096,0.005-0.191,0.013-0.286c-0.212,0.37-0.425,0.74-0.637,1.111
					c0.199-0.134,0.077-0.115-0.368,0.058c-0.233,0.001-0.435-0.069-0.603-0.212c-0.11-0.151-0.127-0.166-0.049-0.043
					c0.163,0.274-0.082-0.253,0.027,0.064c0.021,0.067,0.04,0.135,0.056,0.203c0.085,0.334-0.014-0.268,0.015,0.057
					c0.004,0.06,0.005,0.12,0.003,0.181c0.009-0.062,0.019-0.124,0.028-0.185c-0.062,0.223,0.015,0.104,0.23-0.357
					c0.189-0.11,0.378-0.22,0.568-0.331c0.205-0.062,0.45,0.002,0.609,0.135c-0.053-0.049-0.103-0.1-0.15-0.155
					c0.085,0.112,0.084,0.106,0-0.017c-0.036-0.055-0.219-0.475-0.116-0.201c-0.022-0.063-0.041-0.128-0.057-0.194
					c0.006,0.056,0.013,0.111,0.019,0.166c0.004-0.324-0.093-0.123-0.293,0.605c0.159-0.161,0.27-0.35,0.331-0.568
					c-0.015,0.067-0.048,0.125-0.099,0.173c-0.149,0.146-0.323,0.222-0.522,0.229c-0.064,0.002-0.451-0.158-0.243-0.035
					c-0.135-0.111-0.151-0.118-0.048-0.021c-0.101-0.141-0.113-0.153-0.039-0.036c-0.063-0.172-0.076-0.193-0.037-0.061
					c-0.059-0.227-0.022-0.537,0.154-0.714c0.189-0.11,0.378-0.22,0.568-0.331c0.528-0.103,0.902,0.23,1.124,0.999
					c-0.043,0.221-0.048,0.26-0.015,0.116c0.042-0.169-0.115,0.184,0.076-0.105c-0.104,0.13-0.107,0.144-0.013,0.04
					c-0.144,0.099-0.158,0.111-0.043,0.038c-0.106,0.061-0.221,0.093-0.343,0.097c0.385-0.053,0.456-0.062,0.212-0.027
					c-0.213,0.014-0.406-0.118-0.521-0.285c0.065,0.124,0.06,0.106-0.018-0.052c0.033,0.143,0.035,0.123,0.006-0.059
					c0.005,0.064,0.005,0.127,0.001,0.191c0.03-0.186,0.029-0.209-0.004-0.069c0.028-0.107,0.083-0.198,0.167-0.271
					c0.054-0.067,0.415-0.191,0.107-0.107c0.138-0.014,0.135-0.018-0.011-0.014c0.098-0.007,0.186,0.019,0.265,0.076
					c-0.122-0.073-0.108-0.057,0.042,0.049c-0.095-0.102-0.08-0.08,0.047,0.068c0.068,0.192,0.083,0.225,0.043,0.097
					c0.039,0.138,0.038,0.276-0.002,0.415c-0.104,0.323-0.318,0.532-0.642,0.628c-0.214,0.015-0.243,0.021-0.088,0.021
					c0.406-0.047,0.456-0.058,0.149-0.032c-0.231-0.002-0.424-0.08-0.578-0.233c-0.108-0.159-0.124-0.179-0.046-0.06
					c0.063,0.124,0.056,0.106-0.021-0.053c0.033,0.143,0.035,0.123,0.005-0.059c-0.002,0.147,0.007,0.128,0.029-0.057
					c-0.039,0.137-0.027,0.122,0.035-0.047c0.055-0.11,0.183-0.212,0.3-0.25c0.228,0,0.456,0,0.684,0
					c-0.297-0.042-0.038,0.002,0.101,0.116c-0.047-0.042-0.092-0.088-0.133-0.138c0.099,0.128,0.107,0.13,0.025,0.008
					c-0.036-0.062-0.07-0.126-0.1-0.192c0.056,0.137,0.058,0.136,0.006-0.005c-0.029-0.082-0.133-0.622-0.095-0.311
					c-0.016-0.135-0.014-0.271-0.007-0.407c-0.018,0.352,0.151-0.178-0.043,0.176c-0.149,0.235-0.356,0.377-0.622,0.426
					c-0.102-0.035-0.076-0.031,0.079,0.013c-0.066-0.017,0.124,0.141,0.056,0.041c-0.037-0.129-0.035-0.123,0.006,0.018
					c-0.051-0.158-0.031-0.314,0.06-0.47c-0.056,0.116-0.18,0.217-0.037,0.125c0.195-0.125,0.412-0.096,0.61-0.002
					c-0.117-0.074-0.101-0.059,0.048,0.043c0.228,0.206-0.022-0.094,0.095,0.198c-0.037-0.14-0.037-0.11,0,0.09
					c-0.002,0.117-0.033,0.225-0.093,0.324c-0.046,0.079-0.106,0.144-0.181,0.195c0.143-0.083,0.264-0.19,0.363-0.32
					c-0.315,0.248-0.7,0.217-1.156-0.093c-0.181-0.373-0.237-0.45-0.17-0.231c-0.032-0.082-0.035-0.164-0.008-0.246
					c0.011-0.063,0.239-0.267,0.02-0.052c-1.183,1.166,0.637,2.984,1.819,1.819c1.095-1.079,0.916-3.529-0.958-3.602
					c-0.748-0.029-1.332,0.491-1.7,0.897c-0.475,0.525-0.655,1.315-0.385,1.983c0.593,1.47,2.203,1.904,3.429,0.889
					c1.355-1.124,0.774-3.062-0.574-3.851c-0.687-0.402-1.619-0.46-2.327-0.094c-0.643,0.333-0.837,1.072-0.906,1.726
					c-0.117,1.116,0.457,2.493,1.389,3.123c1.381,0.933,2.952-0.339,2.912-1.84c-0.017-0.617-0.27-1.202-0.691-1.648
					c-0.212-0.224-0.531-0.393-0.828-0.469c-0.144-0.037-0.331-0.061-0.487-0.042c-0.399,0.054-0.456,0.062-0.17,0.021
					c-0.143,0.014-0.285,0.032-0.427,0.055c-1.161,0.287-1.577,1.585-1.049,2.588c0.541,1.028,1.811,1.371,2.862,0.988
					c1.146-0.418,1.547-1.646,1.257-2.765c-0.143-0.549-0.499-0.953-0.946-1.277c-0.243-0.176-0.608-0.247-0.9-0.268
					c-0.184-0.013-0.358,0.011-0.542,0.046c0.413-0.079-0.115,0.009-0.263,0.036c-0.943,0.174-1.72,1.343-1.738,2.255
					c-0.033,1.647,2.061,2.156,2.966,0.896c0.73-1.017,0.06-2.253-0.818-2.881c-0.452-0.324-1.037-0.353-1.56-0.251
					c-0.712,0.137-1.119,0.809-1.355,1.422c0.11-0.189,0.22-0.378,0.331-0.568c-0.905,1.04-0.287,2.467,0.522,3.361
					c0.447,0.494,1.227,0.825,1.89,0.625c0.784-0.237,1.085-0.874,1.143-1.632c0.083-1.105-0.539-2.4-1.614-2.769
					c-0.911-0.312-1.914,0.439-1.975,1.35c-0.06,0.88,0.306,1.732,1.235,1.95C83.825,83.498,84.51,81.018,82.895,80.639
					L82.895,80.639z"/>
			</g>
		</g>
		<g>
			<g>
				<path fill="#45A4FF" d="M93.634,98.09c-0.32-5.349,5.462-8.097,10.06-7.84c3.244,0.182,6.433,0.756,9.069,2.803
					c1.557,1.208,1.951,3.192,2.965,4.766c0.896,1.388,3.124,0.1,2.223-1.299c-1.488-2.307-2.121-5.092-4.844-6.432
					c-3.539-1.739-6.867-2.269-10.783-2.488c-5.682-0.318-11.604,4.773-11.262,10.489C91.161,99.738,93.733,99.748,93.634,98.09
					L93.634,98.09z"/>
			</g>
		</g>
		<g>
			<g>
				<path fill="#45A4FF" d="M93.638,99.979c4.081-1.22,8.038-0.907,12.223-0.905c3.518,0.001,6.932-0.362,10.478-0.227
					c1.66,0.063,1.653-2.509,0-2.572c-4.059-0.155-7.98,0.228-12.022,0.226c-3.929-0.002-7.561-0.139-11.362,0.998
					C91.369,97.973,92.044,100.456,93.638,99.979L93.638,99.979z"/>
			</g>
		</g>
		<g>
			<g>
				<path fill="#45A4FF" d="M68.624,124.476c2.796,2.506,7.091,7.476,10.844,8.508c4.297,1.182,10.897-2.228,14.854-3.672
					c11.726-4.28,24.706-7.88,37.151-9.299c1.629-0.186,1.647-2.76,0-2.572c-10.153,1.158-19.633,4.631-29.624,6.525
					c-5.068,0.961-9.95,3.6-14.89,5.119c-2.756,0.848-5.956,2.112-8.618,0.081c-2.714-2.071-5.356-4.229-7.898-6.508
					C69.212,121.553,67.386,123.366,68.624,124.476L68.624,124.476z"/>
			</g>
		</g>
		<g>
			<g>
				<path fill="#45A4FF" d="M67.765,123.548c4.598-0.437,8.571-3.208,12.858-4.747c5.515-1.979,11.577-1.458,17.302-2.624
					c5.492-1.119,11.288-2.031,16.934-1.958c2.532,0.033,5.977-1.476,8.275-0.171c2.74,1.556,5.62,1.986,8.062,4.189
					c1.229,1.107,3.055-0.706,1.82-1.819c-1.633-1.472-3.102-2.663-5.234-3.25c-2.006-0.551-4.395-2.816-6.53-2.536
					c-5.671,0.742-11.291,1.389-17.057,1.745c-2.976,0.184-5.802,1.085-8.708,1.677c-3.566,0.727-7.399,0.734-11.026,1.08
					c-5.925,0.564-10.78,5.28-16.695,5.842C66.128,121.131,66.113,123.706,67.765,123.548L67.765,123.548z"/>
			</g>
		</g>
		<g>
			<g>
				<path fill="#45A4FF" d="M65.894,124.002c1.315,3.766,1.565,7.744,2.432,11.617c0.256,1.142,1.107,2.158,1.789,3.069
					c1.352,1.806,1.45,4.16,1.52,6.327c0.228,7.129,0.058,13.901,1.151,21.017c0.585,3.811,2.028,7.396,2.526,11.217
					c0.45,3.446,0.17,7.152,0.987,10.535c0.621,2.573,2.917,3.5,5.044,4.884c4.05,2.636,8.096,5.156,12.47,7.233
					c1.49,0.708,2.796-1.51,1.299-2.222c-3.862-1.834-7.64-3.924-11.149-6.373c-1.303-0.909-2.662-1.734-3.965-2.645
					c-1.859-1.298-1.575-5.104-1.728-7.062c-0.558-7.144-2.847-13.81-3.596-20.929c-0.642-6.095,0.344-12.547-0.659-18.529
					c-0.445-2.657-1.406-4.222-2.86-6.441c-2.051-3.128-1.522-8.782-2.78-12.383C67.831,121.763,65.345,122.432,65.894,124.002
					L65.894,124.002z"/>
			</g>
		</g>
		<g>
			<g>
				<path fill="#45A4FF" d="M78.596,132.771c1.491,5.681,1.318,11.872,2.158,17.697c0.821,5.7,2.381,11.321,3.315,17.012
					c0.892,5.433,1.589,10.879,2.654,16.29c0.999,5.071,4.156,10.172,6.588,14.643c0.793,1.457,3.015,0.159,2.222-1.299
					c-2.676-4.917-5.541-10.022-6.631-15.56c-1.069-5.431-1.722-10.916-2.618-16.374c-0.847-5.161-2.107-10.253-3.05-15.395
					c-1.073-5.852-0.645-11.936-2.158-17.697C80.656,130.483,78.174,131.165,78.596,132.771L78.596,132.771z"/>
			</g>
		</g>
		<g>
			<g>
				<path fill="#45A4FF" d="M93.046,197.873c4.754,3.394,12.061,1.294,17.455,1.045c8.936-0.412,17.732-2.508,26.71-2.926
					c1.651-0.077,1.659-2.649,0-2.572c-6.541,0.304-13.019,1.027-19.486,2.031c-4.336,0.674-8.577,0.945-12.95,1.147
					c-3.585,0.166-7.239,1.332-10.429-0.946C92.992,194.685,91.709,196.917,93.046,197.873L93.046,197.873z"/>
			</g>
		</g>
		<g>
			<g>
				<path fill="#45A4FF" d="M132.6,119.19c1.222,7.071,1.591,13.789,2.013,20.925c0.389,6.598,0.921,13.428-0.551,19.908
					c-1.188,5.225,0.405,10.15,2.058,15.078c1.597,4.764,5.228,17.755-0.87,20.841c-1.48,0.75-0.178,2.969,1.299,2.222
					c5.009-2.535,4.396-7.589,4.156-12.341c-0.387-7.658-4.197-14.451-4.549-22.04c-0.153-3.333,1.41-6.576,1.373-9.948
					c-0.043-3.989-0.028-7.936-0.291-11.919c-0.524-7.988-0.792-15.506-2.157-23.409C134.798,116.874,132.319,117.568,132.6,119.19
					L132.6,119.19z"/>
			</g>
		</g>
		<g>
			<g>
				<path fill="#45A4FF" d="M86.67,197.677c-2.237,8.881,14.448,7.54,18.705,7.03c7.689-0.92,22.303,1.292,24.521-8.98
					c0.35-1.617-2.13-2.305-2.48-0.684c-1.551,7.178-14.013,7.275-19.741,6.746c-2.691-0.249-20.148,3.021-18.524-3.429
					C89.556,196.751,87.075,196.069,86.67,197.677L86.67,197.677z"/>
			</g>
		</g>
		<g>
			<g>
				<path fill="#45A4FF" d="M97.735,204.834c-0.403,0.646-0.938,1.318-0.975,2.11c-0.04,0.845,0.512,1.502,1.284,1.778
					c0.658,0.236,1.501,0.092,2.19,0.044c0.832-0.057,1.625-0.366,2.448-0.431c1.642-0.13,1.655-2.704,0-2.572
					c-0.979,0.078-1.913,0.419-2.894,0.457c-0.21,0.008-0.419,0.016-0.629,0.024c-0.071,0.002-0.143,0.005-0.214,0.008
					c-0.517-0.036-0.391,0.261,0.377,0.89c0.082-0.328,0.455-0.723,0.634-1.01C100.838,204.721,98.612,203.431,97.735,204.834
					L97.735,204.834z"/>
			</g>
		</g>
		<g>
			<g>
				<path fill="#45A4FF" d="M116.311,205.707c0.577-0.165,1.099-0.282,1.662-0.288c-0.025,0,0.448,0.05,0.265,0.016
					c0.01,0.002,0.387,0.155,0.22,0.067c-0.153-0.08,0.099,0.15,0.02,0.024c-0.058-0.091,0.024,0.103,0.03,0.162
					c0.127,1.643,2.701,1.655,2.572,0c-0.105-1.346-0.804-2.394-2.158-2.734c-1.071-0.269-2.255-0.026-3.294,0.271
					C114.034,203.682,114.712,206.165,116.311,205.707L116.311,205.707z"/>
			</g>
		</g>
		<g>
			<g>
				<path fill="#45A4FF" d="M90.59,142.733c-1.369,0.112-2.438,0.991-2.767,2.34c-0.317,1.303,0.242,2.834,1.569,3.301
					c2.472,0.869,4.403-2.816,3.008-4.688c-0.418-0.561-1.104-0.846-1.76-0.461c-0.554,0.325-0.881,1.197-0.461,1.76
					c0.026,0.035,0.205,0.353,0.097,0.09c0.026,0.062,0.067,0.389,0.041,0.091c0.005,0.058-0.037,0.399,0.013,0.103
					c-0.01,0.062-0.166,0.479-0.052,0.229c-0.047,0.103-0.108,0.198-0.169,0.293c0.146-0.228-0.042,0.038-0.079,0.076
					c-0.233,0.241,0.207-0.122-0.063,0.051c-0.129,0.067-0.114,0.064,0.046-0.01c-0.143,0.035-0.118,0.036,0.075,0.003
					c-0.232,0.02,0.143,0.039,0.211,0.072c-0.207-0.099,0.026,0.014,0.072,0.083c-0.188-0.282,0.037,0.181-0.056-0.142
					c-0.032-0.152-0.033-0.159-0.005-0.02c-0.003-0.082-0.001-0.164,0.005-0.245c-0.014,0.267,0.043-0.099,0.056-0.139
					c-0.085,0.274,0.21-0.28,0.032-0.064c0.027-0.033,0.306-0.24,0.11-0.11c0.078-0.052,0.161-0.047,0.078-0.041
					c0.699-0.057,1.286-0.542,1.286-1.286C91.876,143.361,91.29,142.675,90.59,142.733L90.59,142.733z"/>
			</g>
		</g>
		<g>
			<g>
				<path fill="#45A4FF" d="M99.858,141.756c-1.322,4.845-3.143,9.704-4.807,14.453c-0.55,1.57,1.936,2.239,2.48,0.684
					c1.666-4.755,3.482-9.597,4.807-14.453C102.776,140.836,100.294,140.157,99.858,141.756L99.858,141.756z"/>
			</g>
		</g>
		<g>
			<g>
				<path fill="#45A4FF" d="M100.285,137.584c1.289,2.002,1.427,4.695,1.736,6.995c0.376,2.791,0.764,5.58,1.153,8.369
					c0.229,1.637,2.707,0.938,2.48-0.684c-0.425-3.041-0.848-6.082-1.253-9.125c-0.312-2.347-0.593-4.829-1.895-6.854
					C101.612,134.896,99.384,136.185,100.285,137.584L100.285,137.584z"/>
			</g>
		</g>
		<g>
			<g>
				<path fill="#45A4FF" d="M105.759,134.509c2.171,5.221,2.331,11.25,4.089,16.659c0.511,1.571,2.995,0.898,2.481-0.684
					c-1.759-5.409-1.918-11.438-4.09-16.659C107.612,132.316,105.122,132.978,105.759,134.509L105.759,134.509z"/>
			</g>
		</g>
		<g>
			<g>
				<path fill="#45A4FF" d="M112.159,130.764c1.828,6.833,2.998,14.117,3.887,21.129c0.205,1.623,2.78,1.643,2.572,0
					c-0.918-7.251-2.088-14.749-3.979-21.813C114.211,128.479,111.729,129.159,112.159,130.764L112.159,130.764z"/>
			</g>
		</g>
		<g>
			<g>
				<path fill="#45A4FF" d="M113.003,130.291c1.769,0.262,3.322-0.139,5.06-0.464c2.532-0.474,5.026-0.56,7.593-0.662
					c1.653-0.065,1.66-2.638,0-2.572c-1.828,0.072-3.656,0.144-5.483,0.216c-2.146,0.084-4.298,1.326-6.485,1.001
					C112.064,127.57,111.366,130.048,113.003,130.291L113.003,130.291z"/>
			</g>
		</g>
		<g>
			<g>
				<path fill="#45A4FF" d="M125.101,128.195c1.219,5.812,1.385,11.512,2.93,17.312c0.25,0.941,1.842,6.535,0.26,7.158
					c-2.399,0.945-6.195,0.736-8.78,0.946c-1.642,0.133-1.655,2.707,0,2.572c3.009-0.243,12.331,0.478,12.286-4.147
					c-0.033-3.34-1.23-7.088-2.12-10.275c-1.31-4.694-1.102-9.516-2.095-14.249C127.239,125.888,124.761,126.577,125.101,128.195
					L125.101,128.195z"/>
			</g>
		</g>
		<g>
			<g>
				<path fill="#45A4FF" d="M116.435,152.221c0.422,1.1,0.933,2.092,1.797,2.913c1.201,1.142,3.023-0.674,1.818-1.819
					c-0.54-0.513-0.859-1.06-1.135-1.777c-0.25-0.654-0.855-1.098-1.582-0.898C116.707,150.812,116.184,151.566,116.435,152.221
					L116.435,152.221z"/>
			</g>
		</g>
		<g>
			<g>
				<path fill="#45A4FF" d="M118.161,135.914c-0.026-0.03-0.24-0.48-0.178-0.244c0.014,0.06,0.025,0.12,0.035,0.181
					c-0.023-0.178-0.025-0.19-0.006-0.039c0.039,0.325,0.074,0.653,0.154,0.971c0.248,0.976,1.098,1.692,2.127,1.481
					c1.386-0.284,1.836-1.741,1.79-2.984c-0.026-0.701-0.565-1.286-1.286-1.286c-0.682,0-1.312,0.585-1.286,1.286
					c0.003,0.099,0.005,0.197,0.004,0.295c-0.001,0.053-0.003,0.106-0.007,0.16c-0.016,0.302,0.057-0.302,0.002,0.012
					c-0.012,0.061-0.025,0.122-0.043,0.182c-0.079,0.3,0.132-0.232-0.016,0.034c0.115-0.134,0.125-0.15,0.028-0.049
					c0.109-0.11,0.206-0.151,0.357-0.165c0.216,0.059,0.433,0.117,0.649,0.175c-0.188-0.113-0.127-0.038,0.187,0.225
					c-0.178-0.232,0.066,0.248-0.026-0.049c-0.031-0.101-0.047-0.206-0.065-0.31c0.056,0.318-0.003-0.028-0.01-0.081
					c-0.075-0.616-0.165-1.132-0.592-1.613c-0.466-0.524-1.346-0.473-1.819,0C117.644,134.612,117.696,135.39,118.161,135.914
					L118.161,135.914z"/>
			</g>
		</g>
		<g>
			<g>
				<path fill="#45A4FF" d="M122.121,144.007c-0.223,1.095-0.346,2.174-0.113,3.278c0.252,1.195,1.423,2.47,2.714,2.415
					c0.535-0.022,1.082-0.107,1.533-0.414c0.694-0.473,0.76-1.076,0.91-1.828c0.306-1.524-0.826-2.764-1.854-3.717
					c-1.215-1.126-3.038,0.689-1.819,1.819c0.38,0.352,0.909,0.752,1.112,1.247c0.076,0.189,0.03,0.428-0.001,0.625
					c0.077-0.115,0.165-0.22,0.264-0.315c-0.042,0.012-0.229-0.077-0.048,0.018c-0.709-0.37-0.338-1.852-0.218-2.444
					C124.931,143.072,122.451,142.382,122.121,144.007L122.121,144.007z"/>
			</g>
		</g>
		<g>
			<g>
				<path fill="#45A4FF" d="M88.817,163.52c1.519,4.873,3.755,10.75,4.055,15.851c0.106,1.81-0.861,3.778-0.082,5.551
					c0.772,1.757,2.239,2.974,3.008,4.726c0.666,1.516,2.882,0.205,2.222-1.299c-0.649-1.477-1.617-2.449-2.577-3.744
					c-1.351-1.823,0.51-5.086-0.138-7.164c-1.503-4.824-2.504-9.78-4.007-14.604C90.806,161.258,88.322,161.932,88.817,163.52
					L88.817,163.52z"/>
			</g>
		</g>
		<g>
			<g>
				<path fill="#45A4FF" d="M90.387,164.049c3.244,1.07,6.928,0.099,10.245-0.467c6.134-1.048,11.966-1.56,18.189-0.935
					c0.938,0.094,10.414-0.705,10.443,0.226c0.103,3.167,0.971,5.19,1.73,8.256c1.051,4.247,2.035,8.509,3.084,12.758
					c0.42,1.707-0.412,1.354-2.135,1.792c-2.629,0.668-5.126,1.661-7.777,2.253c-3.898,0.872-8.041,1.322-12.012,1.657
					c-1.762,0.148-3.521,0.6-5.249,0.955c-3.126,0.643-7.969,2.563-9.001-1.535c-0.405-1.608-2.886-0.926-2.48,0.684
					c0.831,3.301,2.146,4.758,5.585,4.49c5.95-0.462,11.862-2.138,17.81-2.791c5.413-0.595,10.499-3.186,15.824-3.662
					c3.343-0.298,2.219-3.295,1.704-5.384c-0.699-2.833-1.428-5.642-2.035-8.497c-0.633-2.967-2.182-6.019-2.569-9
					c-0.183-1.405,0.806-5.059-1.613-5.222c-2.188-0.147-4.361,0.278-6.532,0.547c-3.299,0.408-6.818-0.261-10.134-0.378
					c-3.336-0.118-6.59,0.041-9.885,0.547c-3.71,0.57-8.715,2.475-12.509,1.224C89.491,161.048,88.819,163.532,90.387,164.049
					L90.387,164.049z"/>
			</g>
		</g>
		<g>
			<g>
				<path fill="#45A4FF" d="M105.196,213.351c2.847,0.674,5.793,2.211,8.408,3.53c2.916,1.471,6.203,2.953,8.648,5.156
					c1.229,1.107,3.055-0.707,1.82-1.819c-2.46-2.215-5.357-3.429-8.219-4.996c-3.051-1.671-6.569-3.545-9.975-4.351
					C104.267,210.488,103.582,212.969,105.196,213.351L105.196,213.351z"/>
			</g>
		</g>
		<g>
			<g>
				<path fill="#45A4FF" d="M123.693,224.955c2.282,8.176-0.813,17.089-5.024,24.146c-4.13,6.924-9.903,14.95-18.241,16.954
					c-1.613,0.387-0.929,2.868,0.684,2.48c8.657-2.081,14.444-9.861,18.977-16.891c5.082-7.881,8.679-18.085,6.086-27.373
					C125.729,222.675,123.246,223.354,123.693,224.955L123.693,224.955z"/>
			</g>
		</g>
		<g>
			<g>
				<path fill="#45A4FF" d="M72.333,259.37c5.995,1.729,11.772,4.517,16.914,7.957c1.383,0.925,2.67-1.304,1.299-2.222
					c-2.507-1.677-4.837-3.483-7.67-4.583c-3.184-1.235-6.581-2.688-9.858-3.633C71.42,256.428,70.742,258.911,72.333,259.37
					L72.333,259.37z"/>
			</g>
		</g>
		<g>
			<g>
				<path fill="#45A4FF" d="M101.788,213.737c5.826,7.64,2.764,17.043-1.081,24.791c-3.36,6.773-7.711,15.796-15.89,17.463
					c-1.625,0.331-0.936,2.811,0.684,2.48c9.513-1.939,14.211-12.161,18.108-20.015c4.061-8.185,6.387-18.167,0.401-26.019
					C103.018,211.138,100.782,212.417,101.788,213.737L101.788,213.737z"/>
			</g>
		</g>
		<g>
			<g>
				<path fill="#45A4FF" d="M99.414,210.491c-8.685,1.824-14.604,10.986-17.72,18.654c-3.339,8.217-6.433,19.349,0.41,26.608
					c1.14,1.209,2.956-0.613,1.819-1.819c-6.041-6.409-2.497-15.301-0.29-22.547c2.236-7.338,8.526-16.749,16.464-18.416
					C101.721,212.63,101.032,210.151,99.414,210.491L99.414,210.491z"/>
			</g>
		</g>
		<g>
			<g>
				<path fill="#45A4FF" d="M82.56,256.292c-1.44,1.886-4.064-1.499-4.801-2.519c-1.457-2.015-2.014-3.547-1.425-6.036
					c0.382-1.613-2.098-2.298-2.48-0.684c-0.429,1.811-0.594,3.575,0.036,5.358c0.601,1.702,2.1,3.409,3.305,4.729
					c2.151,2.356,5.483,3.206,7.587,0.45C85.788,256.271,83.552,254.993,82.56,256.292L82.56,256.292z"/>
			</g>
		</g>
		<g>
			<g>
				<path fill="#45A4FF" d="M98.851,217.562c-4.08-0.251-7.734,4.369-9.591,7.56c-2.945,5.062-4.863,11.032-4.021,16.897
					c0.235,1.637,2.713,0.938,2.48-0.684c-0.576-4.016,0.614-7.703,2.007-11.4c1.125-2.986,5.17-10.045,9.125-9.802
					C100.509,220.236,100.499,217.663,98.851,217.562L98.851,217.562z"/>
			</g>
		</g>
		<g>
			<g>
				<path fill="#45A4FF" d="M99.383,225.377c0.725,6.193-1.344,12.905-7.699,15.286c-1.539,0.576-0.873,3.063,0.684,2.48
					c7.406-2.774,10.458-10.329,9.588-17.766C101.765,223.75,99.19,223.731,99.383,225.377L99.383,225.377z"/>
			</g>
		</g>
		<g>
			<g>
				<path fill="#45A4FF" d="M95.075,231.27c-1.246,4.05-3.13,13.078-9.153,11.601c-1.611-0.395-2.294,2.085-0.684,2.48
					c7.896,1.937,10.59-7.781,12.317-13.398C98.044,230.363,95.561,229.688,95.075,231.27L95.075,231.27z"/>
			</g>
		</g>
		<g>
			<g>
				<path fill="#45A4FF" d="M85.975,241.698c-2.035,2.002-1.729,5.706,0.894,7.099c2.645,1.405,5.35-0.928,7.212-2.567
					c1.248-1.098-0.579-2.911-1.819-1.819c-0.958,0.844-2.107,2.032-3.437,2.21c-1.732,0.232-1.992-2.158-1.03-3.104
					C88.978,242.352,87.158,240.534,85.975,241.698L85.975,241.698z"/>
			</g>
		</g>
		<g>
			<g>
				<path fill="#45A4FF" d="M108.478,223.235c1.654,0.959,3.496,1.537,5.199,2.408c1.75,0.895,3.503,1.784,5.262,2.661
					c1.48,0.737,2.783-1.481,1.299-2.222c-1.76-0.876-3.512-1.767-5.262-2.661c-1.698-0.867-3.56-1.457-5.199-2.408
					C108.338,220.18,107.043,222.403,108.478,223.235L108.478,223.235z"/>
			</g>
		</g>
		<g>
			<g>
				<path fill="#45A4FF" d="M107.618,229.678c1.779,2.066,4.754,2.94,7.188,3.997c1.505,0.653,2.816-1.562,1.299-2.222
					c-2.193-0.952-5.072-1.741-6.667-3.595C108.354,226.6,106.542,228.428,107.618,229.678L107.618,229.678z"/>
			</g>
		</g>
		<g>
			<g>
				<path fill="#45A4FF" d="M106.8,235.048c0.698,1.163,1.894,1.589,3.059,2.153c1.782,0.862,3.593,1.666,5.278,2.713
					c1.413,0.878,2.703-1.348,1.299-2.222c-1.438-0.894-2.961-1.616-4.495-2.327c-0.812-0.375-2.45-0.833-2.92-1.617
					C108.17,232.329,105.945,233.622,106.8,235.048L106.8,235.048z"/>
			</g>
		</g>
		<g>
			<g>
				<path fill="#45A4FF" d="M105.205,240.176c2.697,2.627,6.306,4.255,9.636,5.911c1.48,0.736,2.784-1.483,1.299-2.222
					c-3.115-1.548-6.594-3.051-9.116-5.509C105.835,237.199,104.015,239.017,105.205,240.176L105.205,240.176z"/>
			</g>
		</g>
		<g>
			<g>
				<path fill="#45A4FF" d="M99.314,245.624c0.635,1.191,1.809,1.728,2.953,2.349c1.444,0.784,3.08,1.236,4.66,1.648
					c1.606,0.419,2.288-2.062,0.684-2.48c-1.237-0.323-2.472-0.671-3.643-1.192c-0.767-0.341-2.026-0.862-2.432-1.623
					C100.755,242.861,98.535,244.161,99.314,245.624L99.314,245.624z"/>
			</g>
		</g>
		<g>
			<g>
				<path fill="#45A4FF" d="M99.37,249.811c0.271,3.02,4.79,3.968,7.163,4.578c1.607,0.413,2.289-2.068,0.684-2.48
					c-0.997-0.256-1.987-0.522-2.958-0.867c-0.435-0.154-0.837-0.363-1.242-0.582c-0.185-0.1-1.078-0.691-1.075-0.649
					C101.795,248.172,99.222,248.158,99.37,249.811L99.37,249.811z"/>
			</g>
		</g>
		<g>
			<g>
				<path fill="#45A4FF" d="M118.878,230.91c2.117,1.954-2.932,13.602-3.937,15.662c-2.768,5.673-7.728,9.211-12.902,12.478
					c-1.398,0.883-0.108,3.11,1.299,2.222c6.123-3.866,11.778-8.225,14.649-15.132c1.664-4.005,2.597-8.232,3.561-12.45
					c0.421-1.843,0.611-3.25-0.852-4.599C119.479,227.968,117.656,229.783,118.878,230.91L118.878,230.91z"/>
			</g>
		</g>
		<g>
			<g>
				<path fill="#45A4FF" d="M99.354,49.778c1.162-1.926,2.343-3.814,3.236-5.883c0.371-0.86,1.409-2.718,0.658-3.689
					c-0.751-0.973-1.758-1.376-2.801-1.985c-0.556-0.325-1.012-1.02-1.565-1.404c-0.805-0.558-1.921-1.06-2.379-1.965
					c-0.749-1.48-2.968-0.178-2.222,1.299c0.468,0.926,1.274,1.481,2.104,2.068c1.104,0.781,2.035,1.797,3.195,2.475
					c0.439,0.257,0.906,0.465,1.346,0.723c-0.268-0.157-0.705,1.52-0.893,1.957c-0.774,1.792-1.896,3.441-2.901,5.106
					C96.273,49.904,98.498,51.196,99.354,49.778L99.354,49.778z"/>
			</g>
		</g>
		<g>
			<g>
				<path fill="#45A4FF" d="M81.9,32.688c2.241,5.069,11.966,6.113,15.889,2.777c1.977-1.681,4.018-4.347,4.788-6.839
					c0.899-2.914-0.717-4.297-3.006-5.794c-1.393-0.911-2.681,1.317-1.299,2.222c3.786,2.476-0.147,6.546-2.302,8.593
					c-2.473,2.349-10.426,0.961-11.848-2.257C83.452,29.875,81.236,31.185,81.9,32.688L81.9,32.688z"/>
			</g>
		</g>
		<g>
			<g>
				<path fill="#45A4FF" d="M87.787,19.831c-3.176,0.695-4.487,4.458-3.106,7.247c1.449,2.927,4.312,4.527,7.461,3.405
					c1.138-0.406,2.524-1.136,3.153-2.223c0.841-1.453,0.277-2.746-0.351-4.182c-1.115-2.549-3.643-4.43-6.473-4.268
					c-1.649,0.094-1.658,2.667,0,2.572c1.098-0.062,2.015,0.258,2.849,0.983c0.63,0.547,1.032,1.278,1.403,2.011
					c0.543,1.075,0.609,1.516-0.381,2.172c-1.607,1.065-3.098,1.006-4.497-0.335c-1.427-1.37-1.764-4.379,0.626-4.902
					C90.091,21.957,89.404,19.477,87.787,19.831L87.787,19.831z"/>
			</g>
		</g>
		<g>
			<g>
				<path fill="#45A4FF" d="M134.103,210.911c3.703,1.417,7.458,2.721,11.184,4.084c0.434,0.159,0.932-0.036,1.251-0.331
					c2.143-1.979-0.095-5.26-0.648-7.5c-0.413,0.542-0.827,1.085-1.24,1.628c2.271,0.086,5.501,3.688,7.536,4.718
					c0.763,0.386,1.622,0.052,1.89-0.769c1.149-3.529-2.538-7.732-2.494-11.505c-0.646,0.37-1.29,0.74-1.936,1.111
					c4.378,2.287,9.006,6.98,12.733,10.208c2.98,2.582,6.19,4.712,9.828,6.241c1.528,0.643,2.188-1.848,0.684-2.48
					c-4.433-1.864-7.526-5.038-11.299-7.842c-3.476-2.583-6.812-6.344-10.647-8.349c-0.86-0.45-1.924,0.104-1.936,1.111
					c-0.021,1.714,0.276,3.003,0.807,4.655c0.487,1.521,2.288,4.603,1.779,6.166c0.63-0.256,1.26-0.513,1.89-0.769
					c-2.861-1.449-5.522-4.943-8.835-5.069c-0.856-0.033-1.435,0.843-1.24,1.628c0.431,1.739,2.633,4.759-0.442,3.505
					c-2.688-1.097-5.47-1.886-8.18-2.922C133.234,207.836,132.569,210.324,134.103,210.911L134.103,210.911z"/>
			</g>
		</g>
		<g>
			<g>
				<path fill="#45A4FF" d="M138.733,220.13c1.852,2.433,4.602,5.862,5.44,8.831c0.331,1.172,1.085,2.55,2.233,3.057
					c0.711,0.313,1.7,0.117,1.89-0.769c0.599-2.794,0.289-6.458,1.639-8.962c-0.674,0.086-1.347,0.173-2.021,0.26
					c4.678,4.552,6.814,11.711,9.988,17.32c0.816,1.443,3.039,0.147,2.221-1.299c-3.31-5.849-5.5-13.081-10.39-17.84
					c-0.577-0.562-1.62-0.481-2.021,0.26c-1.541,2.861-1.23,6.458-1.897,9.578c0.63-0.256,1.26-0.513,1.89-0.769
					c-0.94-0.415-2.376-4.108-2.844-4.949c-1.158-2.085-2.463-4.119-3.907-6.017C139.964,217.53,137.728,218.809,138.733,220.13
					L138.733,220.13z"/>
			</g>
		</g>
		<g>
			<g>
				<path fill="#45A4FF" d="M140.591,126.2c2.708,2.14,1.301,6.399-0.703,8.572c-1.122,1.217,0.692,3.042,1.819,1.819
					c2.879-3.124,4.563-9.16,0.703-12.211C141.124,123.364,139.29,125.171,140.591,126.2L140.591,126.2z"/>
			</g>
		</g>
		<g>
			<g>
				<path fill="#45A4FF" d="M140.524,143.577c1.263,0.671,1.779,0.051,3.021-0.253c1.676-0.411,2.787-0.888,4.02-2.146
					c2.664-2.719,3.794-7.3,2.537-10.88c-0.547-1.555-3.032-0.886-2.48,0.684c0.99,2.823,0.123,6.155-1.875,8.377
					c-0.641,0.712-1.316,1.153-2.24,1.397c-0.271,0.072-2.162,0.345-1.684,0.599C140.36,140.577,139.06,142.798,140.524,143.577
					L140.524,143.577z"/>
			</g>
		</g>
		<g>
			<g>
				<path fill="#45A4FF" d="M146.011,149.175c1.764,0.314,3.112-0.271,4.823-0.563c1.489-0.254,2.934-0.912,4.113-1.832
					c1.241-0.967,2.417-2.986,2.991-4.425c0.718-1.798,0.59-3.412-0.501-5.02c-0.925-1.364-3.155-0.079-2.222,1.299
					c1.457,2.147-0.526,4.735-2.088,6.327c-0.701,0.716-2.053,0.911-2.978,1.17c-1.063,0.297-2.349,0.76-3.456,0.563
					C145.072,146.406,144.379,148.885,146.011,149.175L146.011,149.175z"/>
			</g>
		</g>
		<g>
			<g>
				<path fill="#45A4FF" d="M151.991,154.734c1.793-0.138,3.512-0.061,5.111-0.943c1.471-0.812,2.876-2.1,4.043-3.292
					c2.103-2.148,2.335-4.717,2.4-7.578c0.038-1.66-2.534-1.656-2.572,0c-0.051,2.221-0.106,4.023-1.647,5.759
					c-0.857,0.964-1.954,1.783-2.99,2.542c-1.269,0.928-2.849,0.825-4.345,0.94C150.349,152.289,150.337,154.862,151.991,154.734
					L151.991,154.734z"/>
			</g>
		</g>
		<g>
			<g>
				<path fill="#45A4FF" d="M158.933,159.696c2.635,0.768,4.745-0.784,6.373-2.735c2.324-2.785,2.59-6.192,2.657-9.695
					c0.032-1.66-2.54-1.657-2.572,0c-0.043,2.24,0.046,4.931-1.21,6.895c-0.953,1.491-2.557,3.64-4.564,3.055
					C158.021,156.75,157.343,159.233,158.933,159.696L158.933,159.696z"/>
			</g>
		</g>
		<g>
			<g>
				<path fill="#45A4FF" d="M164.744,162.762c2.862,1.373,5.624,0.31,7.488-2.17c2.323-3.089,2.902-6.692,2.541-10.461
					c-0.156-1.636-2.73-1.651-2.572,0c0.244,2.555,0.141,4.869-0.992,7.22c-0.925,1.919-2.765,4.342-5.166,3.189
					C164.555,159.827,163.249,162.044,164.744,162.762L164.744,162.762z"/>
			</g>
		</g>
		<g>
			<g>
				<path fill="#45A4FF" d="M173.501,165.035c0.019,0.113,0.038,0.226,0.057,0.338c0.067,0.404,0.501,0.823,0.898,0.898
					c2.511,0.48,4.398-1.007,5.863-2.904c2.097-2.715,1.331-6.915,0.429-9.911c-0.478-1.584-2.96-0.909-2.48,0.684
					c0.658,2.187,0.978,4.267,0.524,6.533c-0.285,1.424-2.082,3.418-3.652,3.119c0.3,0.299,0.599,0.599,0.898,0.898
					c-0.019-0.113-0.038-0.226-0.057-0.338C175.708,162.718,173.229,163.413,173.501,165.035L173.501,165.035z"/>
			</g>
		</g>
		<g>
			<g>
				<path fill="#45A4FF" d="M180.115,162.787c1.503,0.359,2.945,0.878,4.386,1.434c1.55,0.599,2.214-1.889,0.684-2.48
					c-1.439-0.557-2.882-1.075-4.386-1.434C179.187,159.921,178.502,162.402,180.115,162.787L180.115,162.787z"/>
			</g>
		</g>
		<g>
			<g>
				<path fill="#45A4FF" d="M191.617,170.385c-2.729-1-7.212-4.391-3.312-7.044c1.979-1.347,5.326-0.881,6.98,0.773
					c1.174,1.174,2.993-0.645,1.818-1.819c-2.959-2.959-8.424-3.067-11.401-0.114c-4.392,4.356,1.222,9.216,5.23,10.685
					C192.495,173.438,193.162,170.95,191.617,170.385L191.617,170.385z"/>
			</g>
		</g>
		<g>
			<g>
				<path fill="#45A4FF" d="M63.043,135.1c-1.564,2.795-2.162,5.375-0.964,8.42c1.002,2.547,3.167,4.316,5.379,5.789
					c1.386,0.922,2.672-1.307,1.299-2.222c-3.987-2.653-6.033-6.15-3.493-10.688C66.076,134.95,63.854,133.653,63.043,135.1
					L63.043,135.1z"/>
			</g>
		</g>
		<g>
			<g>
				<path fill="#45A4FF" d="M55.926,141.972c-3.709,6.774,2.943,13.219,9.226,14.619c1.616,0.36,2.303-2.12,0.684-2.48
					c-4.526-1.009-10.581-5.558-7.688-10.84C58.945,141.815,56.723,140.517,55.926,141.972L55.926,141.972z"/>
			</g>
		</g>
		<g>
			<g>
				<path fill="#45A4FF" d="M49.305,149.641c0.058,1.474-0.364,3.142,0.053,4.585c0.444,1.536,1.259,2.752,2.244,3.995
					c2.162,2.729,5.619,4.298,8.925,5.085c1.613,0.384,2.297-2.096,0.684-2.48c-2.529-0.603-4.726-1.611-6.714-3.3
					c-1.261-1.07-2.524-2.688-2.68-4.388c-0.106-1.162,0.108-2.331,0.062-3.497C51.812,147.987,49.239,147.981,49.305,149.641
					L49.305,149.641z"/>
			</g>
		</g>
		<g>
			<g>
				<path fill="#45A4FF" d="M42.665,162.917c1.986,5.386,10.227,10.704,15.116,5.504c1.135-1.208-0.681-3.03-1.819-1.819
					c-3.438,3.658-9.484-0.759-10.816-4.369C44.577,160.691,42.09,161.358,42.665,162.917L42.665,162.917z"/>
			</g>
		</g>
		<g>
			<g>
				<path fill="#45A4FF" d="M44.195,175.684c2.515,2.758,5.004,4.356,8.848,4.215c3.551-0.13,6.25-3.12,8.198-5.76
					c0.986-1.337-1.249-2.618-2.222-1.299c-1.768,2.397-3.821,4.408-6.958,4.522c-2.625,0.096-4.422-1.715-6.047-3.498
					C44.895,172.637,43.081,174.461,44.195,175.684L44.195,175.684z"/>
			</g>
		</g>
		<g>
			<g>
				<path fill="#45A4FF" d="M47.089,183.337c5.173,6.232,13.891,2.847,16.536-3.748c0.618-1.541-1.871-2.204-2.48-0.684
					c-1.997,4.977-8.46,7.162-12.236,2.612C47.848,180.24,46.038,182.071,47.089,183.337L47.089,183.337z"/>
			</g>
		</g>
		<g>
			<g>
				<path fill="#45A4FF" d="M54.582,185.53c0.822,2.197,1.36,4.534,1.943,6.804c0.412,1.606,2.893,0.924,2.48-0.684
					c-0.582-2.27-1.121-4.607-1.943-6.804C56.487,183.308,54,183.974,54.582,185.53L54.582,185.53z"/>
			</g>
		</g>
		<g>
			<g>
				<path fill="#45A4FF" d="M55.227,201.298c-0.925-2.399-1.546-7.368,2.043-7.625c1.269-0.091,3.304-0.077,3.696,1.463
					c0.204,0.802,0.749,1.535,0.98,2.359c0.248,0.883,0.264,1.815,0.267,2.726c0.005,1.659,2.578,1.659,2.572,0
					c-0.007-2.347-0.458-5.336-2.014-7.212c-1.416-1.708-3.406-1.942-5.501-1.909c-5.623,0.09-6.101,6.791-4.523,10.881
					C53.336,203.513,55.824,202.848,55.227,201.298L55.227,201.298z"/>
			</g>
		</g>
		<g>
			<g>
				<path fill="#45A4FF" d="M63.648,111.658c-2.748-2.125-5.86-3.996-8.824-5.786c-2.602-1.571-5.068-3.644-8.126-4.225
					c-0.623-0.119-1.47,0.166-1.582,0.898c-0.206,1.342-0.146,2.369,0.262,3.668c0.739,2.356,2.865,4.187-0.82,3.281
					c-5.163-1.269-9.58-3.845-14.955-4.543c-1.642-0.213-1.621,2.362,0,2.572c4.091,0.531,7.676,1.981,11.479,3.486
					c2.412,0.955,4.91,1.926,7.478,1.309c0.429-0.103,0.787-0.477,0.898-0.898c0.759-2.872-2.303-5.306-1.861-8.191
					c-0.527,0.3-1.055,0.599-1.582,0.898c2.982,0.567,6.064,2.848,8.409,4.661c2.318,1.792,5.076,2.889,7.405,4.689
					C63.124,114.479,64.958,112.672,63.648,111.658L63.648,111.658z"/>
			</g>
		</g>
		<g>
			<g>
				<path fill="#45A4FF" d="M60.162,116.912c-4.407,1.766-8.684,3.768-13.04,5.643c-3.609,1.554-8.483,3.061-11.355,5.857
					c-0.485,0.473-0.512,1.35,0,1.819c1.451,1.328,3.449,1.64,5.392,1.755c-0.085-0.005,4.861,0.32,4.661,0.521
					c-1.464,1.464-2.863,2.964-4.389,4.369c-7.158,6.591-14.753,12.581-21.673,19.458c-1.178,1.171,0.642,2.989,1.819,1.819
					c8.369-8.318,17.736-15.5,26.061-23.828c5.624-5.626-8.891-4.852-10.052-5.915c0,0.606,0,1.213,0,1.819
					c2.127-2.071,6.582-3.515,9.271-4.764c4.612-2.144,9.267-4.183,13.989-6.075C62.366,118.784,61.703,116.294,60.162,116.912
					L60.162,116.912z"/>
			</g>
		</g>
		<g>
			<g>
				<path fill="#45A4FF" d="M112.145,32.335c0.165-3.518,2.042-7.579,3.161-10.895c-0.527,0.3-1.055,0.599-1.582,0.898
					c1.01,0.208,1.992,4.58,3.331,5.449c0.487,0.316,1.158,0.188,1.56-0.201c1.613-1.569,2.41-3.583,3.471-5.532
					c1.594-2.929,3.215-5.863,4.861-8.777c0.817-1.446-1.405-2.743-2.221-1.299c-1.282,2.27-2.625,4.499-3.799,6.827
					c-1.151,2.283-2.279,5.161-4.133,6.961c0.52-0.067,1.04-0.134,1.56-0.201c-1.978-1.283-1.185-5.14-3.946-5.708
					c-0.717-0.147-1.346,0.201-1.582,0.898c-1.219,3.61-3.074,7.75-3.253,11.578C109.494,33.994,112.067,33.986,112.145,32.335
					L112.145,32.335z"/>
			</g>
		</g>
		<g>
			<g>
				<path fill="#45A4FF" d="M117.175,36.749c3.182-1.679,6.125-3.652,9.484-4.988c0.361-0.144,3.275-1.14,3.35-1.634
					c-0.158,1.057-0.656,2.044-0.856,3.093c-0.116,0.604,0.079,1.105,0.591,1.453c1.564,1.061,4.15-0.454,5.598-1.055
					c3.877-1.608,7.561-2.947,11.59-4.147c1.586-0.472,0.91-2.956-0.684-2.48c-3.435,1.023-6.67,1.962-9.939,3.421
					c-1.652,0.738-3.305,1.466-5.045,1.968c0.695-0.201,0.15,2.085,0.971-0.595c0.201-0.657,0.427-1.454,0.427-2.153
					c0-5.977-14.894,3.9-16.784,4.897C114.409,35.302,115.71,37.522,117.175,36.749L117.175,36.749z"/>
			</g>
		</g>
		<g>
			<g>
				<path fill="#45A4FF" d="M92.279,256.286c3.697,2.193,7.819,3.519,11.515,5.713c1.43,0.849,2.724-1.376,1.299-2.222
					c-3.697-2.193-7.819-3.519-11.515-5.713C92.148,253.215,90.854,255.44,92.279,256.286L92.279,256.286z"/>
			</g>
		</g>
		<g>
			<g>
				<path fill="#45A4FF" d="M118.483,80.361c0.755,0.486,1.373,1.076,1.979,1.733c0.567,0.615,0.948,1.542,1.567,2.083
					c1.33,1.163,2.659,2.324,3.834,3.646c1.104,1.242,2.917-0.584,1.819-1.819c-1.311-1.475-3.085-2.632-4.214-4.24
					c-1.004-1.426-2.22-2.679-3.688-3.625C118.384,77.238,117.095,79.465,118.483,80.361L118.483,80.361z"/>
			</g>
		</g>
		<g>
			<g>
				<path fill="#45A4FF" d="M124.789,77.986c-1.335,3.165-3.948,5.566-4.88,8.913c-0.445,1.601,2.037,2.28,2.48,0.684
					c0.859-3.087,3.381-5.359,4.621-8.298C127.647,77.775,125.433,76.463,124.789,77.986L124.789,77.986z"/>
			</g>
		</g>
		<g>
			<g>
				<path fill="#45A4FF" d="M118.008,213.771c2.57,1.015,6.239-0.765,5.433-3.852c-0.706-2.702-4.301-3.035-6.58-2.956
					c-1.654,0.057-1.66,2.63,0,2.572c1.201-0.042,2.896-0.108,3.863,0.738c1.176,1.03-1.283,1.312-2.032,1.017
					C117.147,210.681,116.483,213.17,118.008,213.771L118.008,213.771z"/>
			</g>
		</g>
		<g>
			<g>
				<path fill="#45A4FF" d="M97.379,176.427c0.429,0.036,0.439-0.078,0.031-0.34c0.063,0.154,0.032,0.348,0.027,0.511
					c-0.01,0.363-0.071,0.727-0.101,1.089c-0.123,1.455,0.616,3.107,0.783,4.564c0.186,1.628,2.76,1.646,2.572,0
					c-0.155-1.356-0.413-2.686-0.707-4.019c-0.152-0.69,0.048-1.379,0.024-2.082c-0.065-1.909-1.652-2.509-3.313-2.204
					C95.065,174.245,95.758,176.724,97.379,176.427L97.379,176.427z"/>
			</g>
		</g>
		<g>
			<g>
				<path fill="#45A4FF" d="M97.095,172.019c1.659,0,1.659-2.572,0-2.572S95.436,172.019,97.095,172.019L97.095,172.019z"/>
			</g>
		</g>
		<g>
			<g>
				<path fill="#45A4FF" d="M106.204,171.452c0.091-0.042,0.074-0.026-0.051,0.045c-0.169,0.108-0.326,0.238-0.467,0.38
					c-1.169,1.179,0.649,2.998,1.819,1.819c-0.091,0.041-0.073,0.026,0.052-0.045c0.169-0.108,0.326-0.238,0.466-0.38
					C109.191,172.093,107.374,170.273,106.204,171.452L106.204,171.452z"/>
			</g>
		</g>
		<g>
			<g>
				<g>
					<path fill="#45A4FF" d="M106.253,172.928c-2.678-1.592-4.768,1.085-4.982,3.706c-0.099,1.21-0.172,2.817,0.756,3.763
						c1.065,1.086,2.192,1.686,3.714,1.824c1.652,0.151,1.638-2.423,0-2.572c-1.333-0.122-1.955-0.947-1.946-2.193
						c0.004-0.643,0.338-2.796,1.16-2.307C106.384,175.999,107.677,173.774,106.253,172.928L106.253,172.928z"/>
				</g>
			</g>
			<g>
				<g>
					<path fill="#45A4FF" d="M105.629,172.87c-0.626,0.991-0.187,2.719-0.059,3.785c0.196,1.626,0.407,3.277,0.785,4.873
						c0.382,1.614,2.862,0.93,2.48-0.684c-0.272-1.152-0.436-2.334-0.603-3.505c-0.106-0.749-0.189-1.5-0.254-2.253
						c-0.021-0.252-0.034-0.504-0.043-0.756c-0.012-0.313,0.114-0.476-0.085-0.16C108.739,172.762,106.513,171.472,105.629,172.87
						L105.629,172.87z"/>
				</g>
			</g>
			<g>
				<g>
					<path fill="#45A4FF" d="M103.361,186.012c1.048,1.641,2.963,1.876,4.457,0.701c1.633-1.285,1.209-3.36,1.235-5.149
						c0.025-1.66-2.547-1.657-2.572,0c-0.012,0.826,0.181,1.71,0.031,2.527c-0.078,0.426-0.566,1.192-0.93,0.622
						C104.693,183.32,102.465,184.609,103.361,186.012L103.361,186.012z"/>
				</g>
			</g>
		</g>
		<g>
			<g>
				<g>
					<path fill="#45A4FF" d="M112.376,176.109c0.219-0.148,0.437-0.295,0.654-0.442c0.58-0.392,0.834-1.125,0.462-1.76
						c-0.337-0.575-1.179-0.854-1.761-0.461c-0.217,0.147-0.436,0.295-0.654,0.442c-0.578,0.392-0.833,1.125-0.461,1.76
						C110.953,176.222,111.795,176.502,112.376,176.109L112.376,176.109z"/>
				</g>
			</g>
			<g>
				<g>
					<g>
						<path fill="#45A4FF" d="M113.035,175.399c0.687-0.034,1.52-0.056,2.105,0.047c0.689,0.122,1.384-0.175,1.582-0.898
							c0.173-0.627-0.207-1.46-0.898-1.582c-0.927-0.164-1.852-0.186-2.789-0.139c-0.7,0.035-1.286,0.559-1.286,1.286
							C111.749,174.788,112.335,175.435,113.035,175.399L113.035,175.399z"/>
					</g>
				</g>
				<g>
					<g>
						<path fill="#45A4FF" d="M114.557,175.523c1.007,0.208,0.209,6.327,0.106,6.955c-0.264,1.622,2.215,2.318,2.48,0.684
							c0.348-2.127,0.467-4.383,0.355-6.539c-0.078-1.511-0.586-3.234-2.259-3.58C113.622,172.708,112.933,175.188,114.557,175.523
							L114.557,175.523z"/>
					</g>
				</g>
				<g>
					<g>
						<path fill="#45A4FF" d="M115.69,176.752c-2.359-0.108-5.359,1.404-5.751,3.967c-0.372,2.435,2.333,3.319,4.284,3.251
							c1.654-0.057,1.659-2.63,0-2.572c-0.5,0.017-0.949-0.028-1.429-0.169c-0.138-0.041-0.267-0.101-0.372-0.196
							c0.088,0.079-0.045,0.431,0.082-0.009c0.361-1.252,2.059-1.751,3.186-1.699C117.349,179.401,117.342,176.828,115.69,176.752
							L115.69,176.752z"/>
					</g>
				</g>
			</g>
		</g>
		<g>
			<g>
				<path fill="#45A4FF" d="M116.396,167.081c1.016,2.741,1.705,5.619,2.564,8.409c0.626,2.035,1.104,4.068,3.416,4.57
					c1.617,0.352,2.305-2.128,0.684-2.48c-1.58-0.344-2.064-4.322-2.505-5.657c-0.604-1.831-1.008-3.716-1.679-5.526
					C118.304,164.855,115.817,165.522,116.396,167.081L116.396,167.081z"/>
			</g>
		</g>
		<g>
			<g>
				<path fill="#45A4FF" d="M116.482,171.887c1.718-0.37,3.326-1.058,4.907-1.812c1.496-0.714,0.189-2.932-1.299-2.222
					c-1.385,0.661-2.786,1.228-4.292,1.553C114.177,169.755,114.865,172.235,116.482,171.887L116.482,171.887z"/>
			</g>
		</g>
		<g>
			<g>
				<g>
					<path fill="#45A4FF" d="M124.92,175.091c0.61-0.365,1.23-0.72,1.897-0.938c0.666-0.217,1.091-0.883,0.898-1.582
						c-0.18-0.652-0.916-1.116-1.582-0.898c-0.885,0.288-1.716,0.72-2.513,1.196C122.199,173.719,123.492,175.944,124.92,175.091
						L124.92,175.091z"/>
				</g>
			</g>
			<g>
				<g>
					<path fill="#45A4FF" d="M126.339,174.496c0.848-0.265,3.096,5.513,3.314,6.167c0.521,1.565,3.007,0.895,2.48-0.684
						c-0.657-1.968-1.613-3.935-2.649-5.732c-0.79-1.371-2.104-2.771-3.829-2.232C124.077,172.508,124.751,174.992,126.339,174.496
						L126.339,174.496z"/>
				</g>
			</g>
			<g>
				<g>
					<path fill="#45A4FF" d="M127.81,175.089c-2.171,1.028-3.977,3.76-3.165,6.213c0.778,2.352,3.72,1.742,5.351,0.799
						c1.435-0.83,0.14-3.053-1.299-2.222c-0.414,0.24-0.822,0.395-1.289,0.499c-0.197,0.043-0.379-0.054-0.339,0.068
						c-0.431-1.304,1.03-2.658,2.04-3.135C130.606,176.601,129.3,174.384,127.81,175.089L127.81,175.089z"/>
				</g>
			</g>
		</g>
		<g>
			<g>
				<path fill="#45A4FF" d="M95.816,97.333c1.735-2.257,5.066-2.597,6.41-5.239c-0.784-0.331-1.567-0.661-2.351-0.991
					c-0.476,1.387-2.196,3.549-1.592,5.17c0.224,0.601,0.888,1.171,1.582,0.898c2.497-0.981,4.292-3.552,6.498-5.042
					c-0.646-0.371-1.291-0.741-1.936-1.111c-0.076,1.626-0.995,3.063-1.064,4.7c-0.036,0.847,0.847,1.447,1.628,1.24
					c2.5-0.663,4.082-2.755,5.966-4.343c-0.717-0.189-1.435-0.378-2.15-0.568c0.31,1.312-0.411,2.558-0.234,3.875
					c0.133,0.992,0.982,1.569,1.936,1.111c1.014-0.488,2.153-1.333,2.693-2.336c0.273-0.509,0.221-1.143-0.201-1.559
					c-0.247-0.357-0.494-0.715-0.74-1.073c-0.73-1.21-2.876-0.413-2.352,0.991c0.511,1.366,1.397,2.59,2.186,3.814
					c0.896,1.389,3.123,0.101,2.222-1.299c-0.645-1-1.511-2.087-1.927-3.199c-0.783,0.33-1.566,0.661-2.351,0.991
					c0.421,0.696,0.612,1.071,1.143,1.593c-0.067-0.52-0.134-1.039-0.201-1.559c-0.176,0.326-1.336,1.204-1.771,1.413
					c0.646,0.371,1.291,0.741,1.936,1.111c-0.209-1.562,0.523-2.95,0.143-4.559c-0.239-1.011-1.45-1.158-2.15-0.568
					c-1.47,1.239-2.884,3.166-4.83,3.682c0.542,0.414,1.085,0.827,1.628,1.24c0.068-1.602,0.989-3.068,1.064-4.7
					c0.044-0.941-1.138-1.649-1.936-1.111c-1.885,1.273-3.775,3.955-5.883,4.783c0.527,0.299,1.055,0.599,1.582,0.898
					c-0.234-0.628,1.321-3.013,1.592-3.803c0.473-1.38-1.692-2.287-2.351-0.991c-1.195,2.351-4.776,3.114-6.41,5.239
					C92.583,97.35,94.82,98.628,95.816,97.333L95.816,97.333z"/>
			</g>
		</g>
		<g>
			<g>
				<path fill="#45A4FF" d="M113.31,94.358c-2.48-0.927-4.68-2.411-7.267-3.075c-2.739-0.703-5.701-0.655-8.428-1.386
					c-1.604-0.43-2.285,2.052-0.684,2.48c2.713,0.727,5.645,0.955,8.428,1.386c2.572,0.398,4.85,2.171,7.267,3.075
					C114.183,97.42,114.849,94.933,113.31,94.358L113.31,94.358z"/>
			</g>
		</g>
		<g>
			<g>
				<path fill="#45A4FF" d="M94.851,93.513c2.037,2.18,4.566,3.958,7.45,4.78c1.599,0.456,2.276-2.026,0.684-2.48
					c-2.432-0.694-4.596-2.279-6.314-4.119C95.536,90.479,93.72,92.303,94.851,93.513L94.851,93.513z"/>
			</g>
		</g>
	</g>
</g>
</svg>
